<?xml version="1.0" encoding="UTF-8" standalone="no"?>
<!-- Created with Inkscape (http://www.inkscape.org/) -->

<svg
   xmlns:dc="http://purl.org/dc/elements/1.1/"
   xmlns:cc="http://creativecommons.org/ns#"
   xmlns:rdf="http://www.w3.org/1999/02/22-rdf-syntax-ns#"
   xmlns:svg="http://www.w3.org/2000/svg"
   xmlns="http://www.w3.org/2000/svg"
   xmlns:sodipodi="http://sodipodi.sourceforge.net/DTD/sodipodi-0.dtd"
   xmlns:inkscape="http://www.inkscape.org/namespaces/inkscape"
   width="173.93486"
   height="242.14619"
   id="svg3215"
   sodipodi:version="0.32"
   inkscape:version="0.91 r13725"
   sodipodi:docname="mathematical-induction1.svg"
   inkscape:output_extension="org.inkscape.output.svg.inkscape"
   version="1.1">
  <defs
     id="defs3217">
    <inkscape:perspective
       sodipodi:type="inkscape:persp3d"
       inkscape:vp_x="0 : 526.18109 : 1"
       inkscape:vp_y="0 : 1000 : 0"
       inkscape:vp_z="744.09448 : 526.18109 : 1"
       inkscape:persp3d-origin="372.04724 : 350.78739 : 1"
       id="perspective3223" />
    <inkscape:perspective
       id="perspective3232"
       inkscape:persp3d-origin="372.04724 : 350.78739 : 1"
       inkscape:vp_z="744.09448 : 526.18109 : 1"
       inkscape:vp_y="0 : 1000 : 0"
       inkscape:vp_x="0 : 526.18109 : 1"
       sodipodi:type="inkscape:persp3d" />
    <inkscape:perspective
       id="perspective3269"
       inkscape:persp3d-origin="372.04724 : 350.78739 : 1"
       inkscape:vp_z="744.09448 : 526.18109 : 1"
       inkscape:vp_y="0 : 1000 : 0"
       inkscape:vp_x="0 : 526.18109 : 1"
       sodipodi:type="inkscape:persp3d" />
    <inkscape:perspective
       id="perspective3282"
       inkscape:persp3d-origin="372.04724 : 350.78739 : 1"
       inkscape:vp_z="744.09448 : 526.18109 : 1"
       inkscape:vp_y="0 : 1000 : 0"
       inkscape:vp_x="0 : 526.18109 : 1"
       sodipodi:type="inkscape:persp3d" />
    <inkscape:perspective
       id="perspective4168"
       inkscape:persp3d-origin="0.5 : 0.33333333 : 1"
       inkscape:vp_z="1 : 0.5 : 1"
       inkscape:vp_y="0 : 1000 : 0"
       inkscape:vp_x="0 : 0.5 : 1"
       sodipodi:type="inkscape:persp3d" />
  </defs>
  <sodipodi:namedview
     id="base"
     pagecolor="#ffffff"
     bordercolor="#666666"
     borderopacity="1.0"
     gridtolerance="10000"
     guidetolerance="10"
     objecttolerance="10"
     inkscape:pageopacity="0.0"
     inkscape:pageshadow="2"
     inkscape:zoom="1.7433383"
     inkscape:cx="17.681999"
     inkscape:cy="125.87769"
     inkscape:document-units="px"
     inkscape:current-layer="layer1"
     showgrid="false"
     showborder="true"
     inkscape:window-width="1366"
     inkscape:window-height="768"
     inkscape:window-x="-4"
     inkscape:window-y="-4"
     inkscape:window-maximized="0" />
  <metadata
     id="metadata3220">
    <rdf:RDF>
      <cc:Work
         rdf:about="">
        <dc:format>image/svg+xml</dc:format>
        <dc:type
           rdf:resource="http://purl.org/dc/dcmitype/StillImage" />
        <dc:title></dc:title>
      </cc:Work>
    </rdf:RDF>
  </metadata>
  <g
     inkscape:label="Layer 1"
     inkscape:groupmode="layer"
     id="layer1"
     transform="translate(-140.35444,-537.61269)">
    <path
       style="display:inline;overflow:visible;visibility:visible;opacity:1;fill:#fdca01;fill-opacity:1;fill-rule:nonzero;stroke:none;stroke-width:1.5;stroke-linecap:butt;stroke-linejoin:miter;stroke-miterlimit:4;stroke-dasharray:none;stroke-dashoffset:0;stroke-opacity:1;marker:none;marker-start:none;marker-mid:none;marker-end:none;enable-background:accumulate"
       id="path3641"
       d="m 173.58377,761.5703 c 0.25241,0.1114 0.47452,0.27689 0.69349,0.44214 0.17193,0.13414 0.33825,0.27513 0.50621,0.41412 0.18134,0.14952 0.35501,0.30788 0.5275,0.46743 0.19058,0.17921 0.37576,0.364 0.5619,0.54778 0.16558,0.16205 0.33146,0.32382 0.49544,0.4875 0.18646,0.18707 0.36534,0.38131 0.54361,0.5761 0.17047,0.18863 0.33855,0.37938 0.50841,0.56858 0.17772,0.19801 0.35047,0.40034 0.5215,0.60414 0.19198,0.23279 0.376,0.47195 0.55857,0.71213 0.16029,0.21058 0.31991,0.42165 0.47825,0.6337 0.17686,0.23974 0.34296,0.48702 0.50718,0.73549 0.15393,0.23561 0.30407,0.47368 0.4552,0.7111 0.15363,0.23979 0.29895,0.48462 0.44138,0.7312 0.14748,0.26184 0.28633,0.52839 0.42719,0.79382 0.12297,0.2302 0.24502,0.46089 0.36555,0.69238 0.14465,0.28034 0.27315,0.56837 0.39878,0.85759 0.11467,0.26878 0.22719,0.53849 0.3405,0.80784 0.0991,0.23545 0.19816,0.47089 0.29725,0.70633 0.0893,0.21314 0.17927,0.42598 0.27021,0.63841 0.0579,0.14296 0.12863,0.27973 0.19976,0.41634 0.0483,0.0854 0.1,0.16872 0.1497,0.25328 0.008,0.0289 0.0632,0.0862 0.0657,0.0894 -0.0617,-0.10708 -0.14883,-0.19557 -0.23668,-0.28142 -0.35591,-0.34345 -0.81236,-0.48732 -1.28519,-0.58794 -1.20541,0.30822 -2.34745,0.41612 -2.68999,1.63732 -0.0183,0.0905 0.0233,-0.14125 0.0262,-0.16014 0.022,-0.13463 0.0426,-0.26949 0.0629,-0.4044 0.0279,-0.18541 0.0521,-0.37132 0.0751,-0.55739 0.0223,-0.1905 0.044,-0.38105 0.0656,-0.57164 0.0241,-0.20639 0.0541,-0.41204 0.0818,-0.61796 0.0356,-0.25084 0.0655,-0.50239 0.0963,-0.75384 0.0303,-0.24377 0.0594,-0.48771 0.0933,-0.73102 0.0378,-0.28573 0.0919,-0.56883 0.14668,-0.85168 0.0563,-0.28588 0.11597,-0.57107 0.17282,-0.85684 0.0583,-0.30731 0.12823,-0.61209 0.20339,-0.91565 0.0876,-0.35 0.19058,-0.69586 0.29181,-1.04208 0.0999,-0.33974 0.20006,-0.6794 0.30003,-1.01912 0.0949,-0.32913 0.19641,-0.65625 0.29725,-0.98358 0.10721,-0.34438 0.21388,-0.68895 0.3203,-1.03359 0.1125,-0.36124 0.23442,-0.71942 0.35849,-1.07681 0.1287,-0.36706 0.26198,-0.73248 0.39524,-1.09789 0.12444,-0.34765 0.25131,-0.6944 0.37892,-1.0409 0.13506,-0.36413 0.27975,-0.72456 0.4248,-1.0848 0.13699,-0.34185 0.27501,-0.6833 0.41654,-1.02331 0.15118,-0.37036 0.32003,-0.73296 0.49633,-1.09191 0.18686,-0.37491 0.38837,-0.74235 0.59192,-1.10841 0.18281,-0.32931 0.36795,-0.65733 0.55262,-0.98561 0.18268,-0.33231 0.37658,-0.65806 0.57615,-0.98044 0.20195,-0.32223 0.41045,-0.64031 0.61709,-0.95953 0.18302,-0.2832 0.36572,-0.5666 0.54846,-0.84998 0.19811,-0.30791 0.41039,-0.60621 0.62596,-0.90201 0.21814,-0.2954 0.43969,-0.58825 0.6601,-0.88195 0.1985,-0.26565 0.39801,-0.53052 0.59844,-0.79472 0.20701,-0.27063 0.41964,-0.53691 0.63293,-0.80262 0.19907,-0.24791 0.39804,-0.49593 0.59702,-0.74394 0.18544,-0.23312 0.37322,-0.46433 0.56204,-0.69471 0.19088,-0.22971 0.38419,-0.45737 0.57712,-0.68536 0.17332,-0.20513 0.34638,-0.4105 0.51948,-0.61583 0.15939,-0.18907 0.31877,-0.37814 0.47815,-0.56721 0.147,-0.17438 0.294,-0.34876 0.441,-0.52315 0.0916,-0.10866 0.0471,-0.0551 0.13349,-0.16061 l 3.96628,3.37709 c -0.0966,0.10937 -0.0486,0.0546 -0.14376,0.16438 -0.14934,0.17237 -0.29869,0.34475 -0.44804,0.51713 -0.1619,0.18688 -0.32382,0.37375 -0.48572,0.56064 -0.1749,0.20191 -0.34986,0.40375 -0.52438,0.60599 -0.17528,0.20372 -0.35038,0.40762 -0.52247,0.61404 -0.18305,0.22124 -0.36611,0.44244 -0.54761,0.66494 -0.19519,0.23678 -0.39066,0.47333 -0.5841,0.71153 -0.18882,0.23535 -0.37512,0.47274 -0.55931,0.71173 -0.19799,0.25598 -0.39497,0.51274 -0.59248,0.7691 -0.19675,0.25656 -0.39312,0.51349 -0.58109,0.77659 -0.16779,0.23747 -0.33111,0.47804 -0.49274,0.71974 -0.18624,0.28044 -0.37254,0.56085 -0.5584,0.84155 -0.18361,0.27787 -0.36816,0.55522 -0.54257,0.83902 -0.16838,0.27589 -0.33079,0.55532 -0.49064,0.83622 -0.17833,0.30748 -0.35738,0.61458 -0.5311,0.92469 -0.15824,0.28596 -0.31509,0.57284 -0.4571,0.86731 -0.13229,0.2758 -0.25776,0.55482 -0.37507,0.83733 -0.13443,0.31634 -0.26542,0.63412 -0.39531,0.95234 -0.12701,0.31417 -0.25218,0.62907 -0.36927,0.9471 -0.12596,0.33851 -0.25256,0.67679 -0.37722,1.01578 -0.12171,0.33346 -0.2425,0.66726 -0.35551,1.00379 -0.10607,0.31452 -0.2097,0.62987 -0.30958,0.94641 -0.10381,0.32819 -0.20589,0.65694 -0.30437,0.98678 -0.0955,0.32257 -0.18991,0.64547 -0.2877,0.96737 -0.0962,0.31865 -0.19426,0.63677 -0.28382,0.95738 -0.0763,0.27587 -0.15008,0.55245 -0.21248,0.83184 -0.0556,0.24647 -0.10693,0.49386 -0.15582,0.74174 -0.052,0.25446 -0.10432,0.50892 -0.14992,0.76463 -0.0356,0.20862 -0.0678,0.41774 -0.0943,0.62772 -0.0303,0.22467 -0.0608,0.44932 -0.0914,0.67396 -0.0305,0.23281 -0.0581,0.46601 -0.0822,0.69957 -0.0205,0.20965 -0.0393,0.41948 -0.0635,0.62874 -0.0238,0.19649 -0.0481,0.39292 -0.0722,0.58937 -0.0235,0.1989 -0.0474,0.39774 -0.0681,0.59695 -0.0196,0.18044 -0.0376,0.3611 -0.0646,0.54064 -0.0328,0.21459 -0.0632,0.42992 -0.11373,0.64128 -0.41014,1.57363 -1.37556,1.88565 -3.06957,2.3305 -0.58378,-0.11899 -1.12981,-0.3117 -1.57108,-0.72833 -0.20934,-0.19657 -0.40275,-0.40863 -0.56209,-0.64844 -0.1118,-0.16735 -0.21706,-0.33891 -0.31334,-0.51571 -0.0996,-0.18371 -0.19828,-0.36813 -0.28563,-0.55808 -0.10323,-0.22583 -0.2036,-0.4529 -0.29539,-0.68368 -0.09,-0.22053 -0.17897,-0.44148 -0.26854,-0.6622 -0.0956,-0.23596 -0.19112,-0.47193 -0.28685,-0.70783 -0.0956,-0.23533 -0.1903,-0.47108 -0.29238,-0.70371 -0.0855,-0.19096 -0.17587,-0.37968 -0.2735,-0.56478 -0.11188,-0.2198 -0.22532,-0.43881 -0.33858,-0.65792 -0.10507,-0.20198 -0.21098,-0.40361 -0.3248,-0.60084 -0.11265,-0.19259 -0.22781,-0.3837 -0.34575,-0.57312 -0.12628,-0.20304 -0.25308,-0.40582 -0.38443,-0.60563 -0.11737,-0.17563 -0.23794,-0.34913 -0.36389,-0.51874 -0.14246,-0.19511 -0.28599,-0.38946 -0.43082,-0.58281 -0.12929,-0.17034 -0.26064,-0.33919 -0.39995,-0.50152 -0.14046,-0.16557 -0.28403,-0.32848 -0.42786,-0.49113 -0.15085,-0.16982 -0.30035,-0.34087 -0.45459,-0.50766 -0.13285,-0.14295 -0.26842,-0.28334 -0.40655,-0.42118 -0.15267,-0.15404 -0.30672,-0.30669 -0.46068,-0.45941 -0.1348,-0.13263 -0.26861,-0.26659 -0.41114,-0.39102 -0.11749,-0.10335 -0.23705,-0.2043 -0.3581,-0.30344 -0.11058,-0.0915 -0.21997,-0.18458 -0.33449,-0.2712 -0.0647,-0.0484 -0.13025,-0.0961 -0.18773,-0.15319 l 2.65205,-4.4555 z"
       inkscape:connector-curvature="0" />
    <text
       xml:space="preserve"
       style="font-style:normal;font-variant:normal;font-weight:normal;font-stretch:normal;font-size:21.76178932px;line-height:125%;font-family:'Komika Text';-inkscape-font-specification:'Komika Text';text-indent:0;text-align:start;text-decoration:none;text-decoration-line:none;letter-spacing:normal;word-spacing:normal;text-transform:none;direction:ltr;block-progression:tb;writing-mode:lr-tb;text-anchor:start;display:inline;overflow:visible;visibility:visible;opacity:1;fill:#013397;fill-opacity:1;fill-rule:nonzero;stroke:none;stroke-width:1.5;stroke-linecap:butt;stroke-linejoin:miter;stroke-miterlimit:4;stroke-dasharray:none;stroke-dashoffset:0;stroke-opacity:1;marker:none;marker-start:none;marker-mid:none;marker-end:none;enable-background:accumulate"
       x="213.65785"
       y="552.07703"
       id="text3288"
       sodipodi:linespacing="125%"><tspan
         sodipodi:role="line"
         id="tspan3290"
         x="213.65785"
         y="552.07703">k+1</tspan></text>
    <text
       xml:space="preserve"
       style="font-style:normal;font-variant:normal;font-weight:normal;font-stretch:normal;font-size:30.5144062px;line-height:125%;font-family:'Komika Text';-inkscape-font-specification:'Komika Text';text-indent:0;text-align:start;text-decoration:none;text-decoration-line:none;letter-spacing:normal;word-spacing:normal;text-transform:none;direction:ltr;block-progression:tb;writing-mode:lr-tb;text-anchor:start;display:inline;overflow:visible;visibility:visible;opacity:1;fill:#013397;fill-opacity:1;fill-rule:nonzero;stroke:none;stroke-width:1.5;stroke-linecap:butt;stroke-linejoin:miter;stroke-miterlimit:4;stroke-dasharray:none;stroke-dashoffset:0;stroke-opacity:1;marker:none;marker-start:none;marker-mid:none;marker-end:none;enable-background:accumulate"
       x="198.16655"
       y="567.53979"
       id="text3292"
       sodipodi:linespacing="125%"><tspan
         sodipodi:role="line"
         id="tspan3294"
         x="198.16655"
         y="567.53979">3    - 1</tspan></text>
    <text
       xml:space="preserve"
       style="font-style:normal;font-variant:normal;font-weight:normal;font-stretch:normal;font-size:21.76178932px;line-height:125%;font-family:'Komika Text';-inkscape-font-specification:'Komika Text';text-indent:0;text-align:start;text-decoration:none;text-decoration-line:none;letter-spacing:normal;word-spacing:normal;text-transform:none;direction:ltr;block-progression:tb;writing-mode:lr-tb;text-anchor:start;display:inline;overflow:visible;visibility:visible;opacity:1;fill:#013397;fill-opacity:1;fill-rule:nonzero;stroke:none;stroke-width:1.5;stroke-linecap:butt;stroke-linejoin:miter;stroke-miterlimit:4;stroke-dasharray:none;stroke-dashoffset:0;stroke-opacity:1;marker:none;marker-start:none;marker-mid:none;marker-end:none;enable-background:accumulate"
       x="240.35875"
       y="616.62238"
       id="text3296"
       sodipodi:linespacing="125%"><tspan
         sodipodi:role="line"
         id="tspan3298"
         x="240.35875"
         y="616.62238">k</tspan></text>
    <text
       xml:space="preserve"
       style="font-style:normal;font-variant:normal;font-weight:normal;font-stretch:normal;font-size:30.5144062px;line-height:125%;font-family:'Komika Text';-inkscape-font-specification:'Komika Text';text-indent:0;text-align:start;text-decoration:none;text-decoration-line:none;letter-spacing:normal;word-spacing:normal;text-transform:none;direction:ltr;block-progression:tb;writing-mode:lr-tb;text-anchor:start;display:inline;overflow:visible;visibility:visible;fill:#013397;fill-opacity:1;fill-rule:nonzero;stroke:none;stroke-width:1.5;marker:none;enable-background:accumulate"
       x="194.53255"
       y="631.4408"
       id="text3300"
       sodipodi:linespacing="125%"><tspan
         sodipodi:role="line"
         id="tspan4156"
         x="194.53255"
         y="631.4408">3×3  - 1</tspan></text>
    <text
       xml:space="preserve"
       style="font-style:normal;font-variant:normal;font-weight:normal;font-stretch:normal;font-size:21.76178932px;line-height:125%;font-family:'Komika Text';-inkscape-font-specification:'Komika Text';text-indent:0;text-align:start;text-decoration:none;text-decoration-line:none;letter-spacing:normal;word-spacing:normal;text-transform:none;direction:ltr;block-progression:tb;writing-mode:lr-tb;text-anchor:start;display:inline;overflow:visible;visibility:visible;opacity:1;fill:#013397;fill-opacity:1;fill-rule:nonzero;stroke:none;stroke-width:1.5;stroke-linecap:butt;stroke-linejoin:miter;stroke-miterlimit:4;stroke-dasharray:none;stroke-dashoffset:0;stroke-opacity:1;marker:none;marker-start:none;marker-mid:none;marker-end:none;enable-background:accumulate"
       x="203.37688"
       y="689.68335"
       id="text3304"
       sodipodi:linespacing="125%"><tspan
         sodipodi:role="line"
         id="tspan3306"
         x="203.37688"
         y="689.68335">k</tspan></text>
    <text
       xml:space="preserve"
       style="font-style:normal;font-variant:normal;font-weight:normal;font-stretch:normal;font-size:30.5144062px;line-height:125%;font-family:'Komika Text';-inkscape-font-specification:'Komika Text';text-indent:0;text-align:start;text-decoration:none;text-decoration-line:none;letter-spacing:normal;word-spacing:normal;text-transform:none;direction:ltr;block-progression:tb;writing-mode:lr-tb;text-anchor:start;display:inline;overflow:visible;visibility:visible;fill:#013397;fill-opacity:1;fill-rule:nonzero;stroke:none;stroke-width:1.5;marker:none;enable-background:accumulate"
       x="156.85884"
       y="704.50165"
       id="text3308"
       sodipodi:linespacing="125%"><tspan
         sodipodi:role="line"
         id="tspan4158"
         x="156.85884"
         y="704.50165">2×3  + 3  - 1</tspan></text>
    <text
       sodipodi:linespacing="125%"
       id="text3312"
       y="689.68335"
       x="260.50687"
       style="font-style:normal;font-variant:normal;font-weight:normal;font-stretch:normal;font-size:21.76178932px;line-height:125%;font-family:'Komika Text';-inkscape-font-specification:'Komika Text';text-indent:0;text-align:start;text-decoration:none;text-decoration-line:none;letter-spacing:normal;word-spacing:normal;text-transform:none;direction:ltr;block-progression:tb;writing-mode:lr-tb;text-anchor:start;display:inline;overflow:visible;visibility:visible;opacity:1;fill:#013397;fill-opacity:1;fill-rule:nonzero;stroke:none;stroke-width:1.5;stroke-linecap:butt;stroke-linejoin:miter;stroke-miterlimit:4;stroke-dasharray:none;stroke-dashoffset:0;stroke-opacity:1;marker:none;marker-start:none;marker-mid:none;marker-end:none;enable-background:accumulate"
       xml:space="preserve"><tspan
         y="689.68335"
         x="260.50687"
         id="tspan3314"
         sodipodi:role="line">k</tspan></text>
    <path
       style="display:inline;overflow:visible;visibility:visible;fill:#0197fd;fill-opacity:1;fill-rule:nonzero;stroke:none;stroke-width:1.5;marker:none;enable-background:accumulate"
       id="path3593"
       d="m 242.23809,709.9067 c 0.0311,0.042 0.0346,0.0967 0.0451,0.14667 0.0191,0.0938 0.0383,0.18768 0.0586,0.28126 0.0155,0.0794 0.0347,0.15801 0.0563,0.23595 0.0322,0.11932 0.0725,0.23634 0.11327,0.35291 0.0462,0.13342 0.097,0.26513 0.15104,0.39553 0.0552,0.13231 0.11627,0.26207 0.17892,0.39095 0.069,0.14363 0.14449,0.28402 0.22328,0.42247 0.0679,0.11948 0.14489,0.23328 0.22647,0.34377 0.0862,0.11695 0.1833,0.22508 0.28299,0.33052 0.11803,0.12414 0.24828,0.23566 0.38036,0.34439 0.15105,0.12368 0.31149,0.23508 0.4739,0.34319 0.19534,0.12821 0.39732,0.24595 0.60022,0.36179 0.21127,0.12069 0.42629,0.23464 0.64306,0.34506 0.22015,0.11253 0.44497,0.21545 0.67154,0.31427 0.23067,0.10186 0.46644,0.19142 0.7037,0.27649 0.25835,0.091 0.51936,0.17422 0.78073,0.25606 0.26782,0.0839 0.53694,0.16362 0.80673,0.24116 0.2673,0.0772 0.53689,0.14608 0.80701,0.21251 0.27911,0.0686 0.55905,0.13372 0.83932,0.19749 0.27315,0.0633 0.54721,0.12249 0.82224,0.17719 0.28118,0.056 0.5641,0.1028 0.84703,0.14868 0.28376,0.0461 0.56772,0.0905 0.85222,0.13158 0.27391,0.0402 0.54906,0.0713 0.82445,0.0991 0.28758,0.029 0.57556,0.0542 0.86371,0.0772 0.28468,0.0238 0.56976,0.0426 0.85499,0.0584 0.2904,0.0162 0.5811,0.0257 0.87177,0.0355 0.28842,0.0101 0.5769,0.019 0.86542,0.0262 0.28408,0.008 0.56825,0.0117 0.85242,0.0142 0.28425,0.003 0.56851,0.004 0.85274,0.005 0.27609,0.002 0.55217,2.8e-4 0.82822,-0.003 0.27585,-0.004 0.55167,-0.01 0.8274,-0.0181 0.27556,-0.009 0.55111,-0.0189 0.82653,-0.0317 0.2715,-0.0128 0.54298,-0.0248 0.81457,-0.0366 0.27218,-0.0111 0.54439,-0.0209 0.81664,-0.0311 0.27318,-0.009 0.54626,-0.0201 0.81941,-0.0306 0.26694,-0.01 0.53397,-0.0179 0.80103,-0.0248 0.26116,-0.007 0.52238,-0.01 0.78359,-0.01 0.2685,10e-4 0.53685,0.0113 0.80493,0.0257 0.25663,0.0146 0.5127,0.0366 0.76839,0.0629 0.27225,0.0281 0.54199,0.0742 0.81062,0.12586 0.25165,0.051 0.50081,0.11335 0.74903,0.17879 0.23579,0.061 0.46881,0.13162 0.70024,0.2073 0.24484,0.0815 0.48343,0.17961 0.71946,0.28355 0.21228,0.0955 0.4198,0.20084 0.62621,0.30836 0.20601,0.10845 0.40533,0.22873 0.60221,0.3528 0.17337,0.11003 0.34272,0.22623 0.51154,0.34311 0.15811,0.10962 0.31308,0.22372 0.46684,0.33941 0.1533,0.11636 0.30208,0.23837 0.4492,0.3624 0.1331,0.11296 0.26362,0.22892 0.39259,0.34649 0.14153,0.12883 0.27451,0.26641 0.40458,0.40658 0.12504,0.13555 0.243,0.27737 0.35786,0.42162 0.11839,0.15069 0.227,0.30864 0.33142,0.46922 0.10209,0.15664 0.19191,0.32052 0.27895,0.48576 0.08,0.15522 0.15053,0.31492 0.21901,0.47543 0.0575,0.13722 0.11231,0.27553 0.16476,0.41473 0.0634,0.16741 0.11443,0.33891 0.16055,0.51175 0.0375,0.14651 0.0702,0.29417 0.1022,0.44195 0.0247,0.11791 0.0486,0.23598 0.0723,0.35408 0.024,0.12406 0.0461,0.24843 0.067,0.37304 0.0171,0.10303 0.0342,0.20607 0.0513,0.30911 0.0172,0.10029 0.0329,0.2008 0.0481,0.30141 0.013,0.0919 0.0265,0.18373 0.0399,0.27554 0.0119,0.0817 0.0239,0.16335 0.0358,0.245 0.012,0.0819 0.0243,0.16367 0.0352,0.24569 0.0104,0.0781 0.0192,0.15636 0.0284,0.2346 0.0105,0.0938 0.0179,0.18784 0.0247,0.28197 0.005,0.0656 0.009,0.13124 0.0141,0.19685 0.004,0.0585 0.008,0.11699 0.0125,0.17549 0.004,0.0557 0.007,0.11143 0.0113,0.16714 0.003,0.0512 0.007,0.10252 0.0107,0.15378 0.004,0.056 0.008,0.11204 0.0106,0.16813 0.002,0.0538 0.004,0.10766 0.006,0.16148 0.002,0.042 0.003,0.084 0.005,0.12591 0.002,0.0386 0.003,0.0771 0.005,0.1157 10e-4,0.0356 0.003,0.0711 0.004,0.10672 10e-4,0.0328 0.003,0.0656 0.004,0.0984 0.004,0.0639 0.003,0.12789 0.002,0.19189 l -3.566,-0.0895 c 8.3e-4,0.17024 -2e-5,0.0455 -0.002,0.006 -6.8e-4,-0.0328 -0.001,-0.0656 -0.002,-0.0985 -7.5e-4,-0.0356 -0.001,-0.0712 -0.002,-0.10675 -8.3e-4,-0.0386 -0.002,-0.0772 -0.002,-0.11573 -8.6e-4,-0.0417 -0.002,-0.0834 -0.003,-0.12505 -7.9e-4,-0.0366 -0.002,-0.0731 -0.003,-0.10964 -0.001,-0.0279 -0.004,-0.0795 -0.006,-0.11631 -0.003,-0.0512 -0.005,-0.10238 -0.008,-0.15355 -0.003,-0.0538 -0.006,-0.10757 -0.009,-0.16136 -0.003,-0.0585 -0.006,-0.117 -0.009,-0.1755 -0.003,-0.0612 -0.006,-0.12238 -0.01,-0.18356 -0.002,-0.0414 -0.005,-0.0827 -0.009,-0.12392 -0.006,-0.0619 -0.0132,-0.12383 -0.0195,-0.18579 -0.008,-0.0689 -0.0169,-0.1377 -0.0257,-0.20655 -0.0104,-0.0817 -0.0208,-0.16349 -0.0311,-0.24524 -0.0108,-0.0847 -0.0214,-0.16948 -0.033,-0.25412 -0.0115,-0.0859 -0.0246,-0.17165 -0.0371,-0.25745 -0.0143,-0.0974 -0.0285,-0.19479 -0.0431,-0.29212 -0.0135,-0.0883 -0.0286,-0.17627 -0.0447,-0.26412 -0.0193,-0.10322 -0.0387,-0.20644 -0.0587,-0.3095 -0.0167,-0.0862 -0.0347,-0.17219 -0.0551,-0.25762 -0.0162,-0.0619 -0.0335,-0.12362 -0.0557,-0.18376 -0.0347,-0.094 -0.0692,-0.1881 -0.10739,-0.28076 -0.0318,-0.0768 -0.0639,-0.15364 -0.10112,-0.22806 -0.0342,-0.0688 -0.0707,-0.13644 -0.11131,-0.20169 -0.0426,-0.068 -0.0867,-0.13494 -0.13545,-0.19866 -0.058,-0.0754 -0.11831,-0.1491 -0.18134,-0.22038 -0.0663,-0.0729 -0.13321,-0.14532 -0.20593,-0.212 -0.0937,-0.0886 -0.1889,-0.17561 -0.2861,-0.26042 -0.097,-0.0846 -0.19556,-0.16759 -0.29727,-0.24663 -0.11522,-0.0899 -0.23174,-0.1781 -0.35078,-0.26297 -0.12412,-0.0888 -0.24877,-0.1769 -0.37659,-0.26031 -0.1179,-0.0763 -0.23726,-0.15039 -0.36073,-0.21743 -0.1371,-0.0741 -0.27496,-0.14704 -0.41651,-0.21235 -0.13188,-0.0603 -0.26505,-0.11802 -0.40237,-0.16503 -0.1648,-0.0566 -0.33126,-0.10815 -0.49924,-0.15452 -0.17359,-0.0474 -0.34755,-0.094 -0.52375,-0.13086 -0.16934,-0.0347 -0.33968,-0.0642 -0.51153,-0.0834 -0.20021,-0.0225 -0.40074,-0.0421 -0.60183,-0.0555 -0.20774,-0.0132 -0.41573,-0.0235 -0.6239,-0.0262 -0.2337,-0.002 -0.46744,-0.002 -0.70111,0.002 -0.25218,0.003 -0.50432,0.008 -0.75644,0.0148 -0.26726,0.007 -0.53444,0.0163 -0.80156,0.0268 -0.26841,0.01 -0.53679,0.0209 -0.80517,0.0319 -0.27288,0.0104 -0.54573,0.0211 -0.81866,0.0308 -0.28802,0.01 -0.57603,0.0198 -0.8641,0.0283 -0.29494,0.008 -0.58986,0.0147 -0.88487,0.0194 -0.29438,0.003 -0.58879,0.005 -0.88318,0.003 -0.29256,-0.002 -0.58517,-0.004 -0.87778,-0.008 -0.30116,-0.004 -0.60243,-0.008 -0.90355,-0.0165 -0.30058,-0.009 -0.60113,-0.0181 -0.90162,-0.0301 -0.31002,-0.0129 -0.62004,-0.0258 -0.92991,-0.0417 -0.31556,-0.0174 -0.63099,-0.036 -0.94593,-0.0622 -0.31059,-0.0262 -0.62103,-0.0538 -0.93108,-0.0854 -0.32298,-0.0335 -0.64577,-0.0684 -0.96727,-0.11367 -0.30648,-0.0449 -0.61243,-0.0931 -0.91772,-0.1454 -0.31611,-0.0535 -0.63235,-0.10634 -0.94741,-0.16591 -0.31007,-0.0605 -0.6195,-0.12401 -0.92723,-0.19564 -0.29901,-0.0694 -0.5978,-0.13971 -0.89579,-0.21355 -0.30983,-0.0775 -0.61956,-0.15567 -0.92709,-0.24205 -0.29729,-0.0854 -0.59406,-0.17256 -0.88915,-0.26538 -0.30157,-0.0956 -0.60285,-0.19214 -0.9017,-0.29591 -0.30914,-0.10996 -0.61677,-0.22401 -0.91812,-0.35405 -0.2883,-0.12503 -0.57508,-0.25354 -0.8564,-0.39372 -0.26849,-0.13576 -0.53514,-0.27503 -0.79625,-0.42453 -0.26295,-0.15098 -0.52544,-0.30295 -0.78122,-0.46597 -0.26258,-0.17104 -0.52267,-0.34631 -0.7669,-0.54318 -0.23764,-0.19357 -0.47038,-0.39325 -0.68632,-0.61113 -0.20514,-0.21056 -0.40419,-0.42724 -0.58149,-0.6622 -0.16125,-0.21783 -0.31564,-0.44063 -0.45102,-0.67572 -0.11441,-0.19849 -0.22623,-0.39841 -0.33029,-0.60254 -0.0971,-0.19338 -0.19235,-0.38775 -0.2777,-0.58673 -0.0765,-0.18128 -0.15034,-0.3637 -0.21923,-0.54808 -0.0635,-0.1694 -0.12748,-0.33857 -0.18573,-0.50985 -0.051,-0.15624 -0.10048,-0.31299 -0.14039,-0.47251 -0.0252,-0.10196 -0.05,-0.20401 -0.0755,-0.30589 -0.0305,-0.1292 -0.0613,-0.25935 -0.063,-0.39289 l 3.45857,-0.52334 z"
       inkscape:connector-curvature="0" />
    <path
       d="m 304.89876,709.9067 c -0.0311,0.042 -0.0346,0.0967 -0.0451,0.14667 -0.0191,0.0938 -0.0383,0.18768 -0.0586,0.28126 -0.0155,0.0794 -0.0347,0.15801 -0.0563,0.23595 -0.0322,0.11932 -0.0725,0.23634 -0.11328,0.35291 -0.0461,0.13342 -0.097,0.26513 -0.15104,0.39553 -0.0552,0.13231 -0.11624,0.26207 -0.17893,0.39095 -0.069,0.14363 -0.14448,0.28402 -0.22326,0.42247 -0.0679,0.11948 -0.14489,0.23328 -0.22647,0.34377 -0.0863,0.11695 -0.1833,0.22508 -0.283,0.33052 -0.11803,0.12414 -0.24828,0.23566 -0.38037,0.34439 -0.15104,0.12368 -0.31147,0.23508 -0.47389,0.34319 -0.19534,0.12821 -0.39733,0.24595 -0.60022,0.36179 -0.21128,0.12069 -0.42627,0.23464 -0.64305,0.34506 -0.22015,0.11253 -0.44498,0.21545 -0.67153,0.31427 -0.23069,0.10186 -0.46644,0.19142 -0.70371,0.27649 -0.25836,0.091 -0.51937,0.17422 -0.78071,0.25606 -0.26785,0.0839 -0.53697,0.16362 -0.80675,0.24116 -0.26731,0.0772 -0.53689,0.14608 -0.80702,0.21251 -0.27911,0.0686 -0.55905,0.13372 -0.8393,0.19749 -0.27317,0.0633 -0.54724,0.12249 -0.82224,0.17719 -0.28119,0.056 -0.5641,0.1028 -0.84706,0.14868 -0.28375,0.0461 -0.56771,0.0905 -0.8522,0.13158 -0.27392,0.0402 -0.54907,0.0713 -0.82445,0.0991 -0.28758,0.029 -0.57555,0.0542 -0.86369,0.0772 -0.28471,0.0238 -0.56979,0.0426 -0.855,0.0584 -0.29043,0.0162 -0.58112,0.0257 -0.87177,0.0355 -0.28845,0.0101 -0.57692,0.019 -0.86545,0.0262 -0.28407,0.008 -0.56825,0.0117 -0.85241,0.0142 -0.28423,0.003 -0.56849,0.004 -0.85273,0.005 -0.27611,0.002 -0.55219,2.8e-4 -0.82823,-0.003 -0.27585,-0.004 -0.55165,-0.01 -0.82741,-0.0181 -0.27556,-0.009 -0.55111,-0.0189 -0.82652,-0.0317 -0.27149,-0.0128 -0.54298,-0.0248 -0.81455,-0.0366 -0.27221,-0.0111 -0.54442,-0.0209 -0.81667,-0.0311 -0.27317,-0.009 -0.54626,-0.0201 -0.81938,-0.0306 -0.26696,-0.01 -0.534,-0.0179 -0.80106,-0.0248 -0.26115,-0.007 -0.52235,-0.01 -0.78358,-0.01 -0.2685,10e-4 -0.53685,0.0113 -0.80493,0.0257 -0.25661,0.0146 -0.5127,0.0366 -0.76836,0.0629 -0.27229,0.0281 -0.54199,0.0742 -0.81065,0.12586 -0.25166,0.051 -0.50078,0.11335 -0.74903,0.17879 -0.23579,0.061 -0.46881,0.13162 -0.70024,0.2073 -0.24483,0.0815 -0.48344,0.17961 -0.71946,0.28355 -0.21229,0.0955 -0.41981,0.20084 -0.6262,0.30836 -0.20602,0.10845 -0.40533,0.22873 -0.6022,0.3528 -0.17338,0.11003 -0.34274,0.22623 -0.51157,0.34311 -0.1581,0.10962 -0.31307,0.22372 -0.46683,0.33941 -0.15329,0.11636 -0.30208,0.23837 -0.44921,0.3624 -0.1331,0.11296 -0.26361,0.22892 -0.39258,0.34649 -0.14151,0.12883 -0.27451,0.26641 -0.40458,0.40658 -0.12504,0.13555 -0.243,0.27737 -0.35784,0.42162 -0.11839,0.15069 -0.22699,0.30864 -0.33144,0.46922 -0.10209,0.15664 -0.19192,0.32052 -0.27895,0.48576 -0.0801,0.15522 -0.15051,0.31492 -0.21901,0.47543 -0.0575,0.13722 -0.1123,0.27553 -0.16476,0.41473 -0.0634,0.16741 -0.11443,0.33891 -0.16056,0.51175 -0.0374,0.14651 -0.0702,0.29417 -0.10219,0.44195 -0.0246,0.11791 -0.0486,0.23598 -0.0723,0.35408 -0.024,0.12406 -0.0461,0.24843 -0.067,0.37304 -0.0171,0.10303 -0.0342,0.20607 -0.0513,0.30911 -0.0172,0.10029 -0.0329,0.2008 -0.048,0.30141 -0.013,0.0919 -0.0265,0.18373 -0.0399,0.27554 -0.0119,0.0817 -0.0239,0.16335 -0.0358,0.245 -0.012,0.0819 -0.0242,0.16367 -0.0352,0.24569 -0.0104,0.0781 -0.0192,0.15636 -0.0285,0.2346 -0.0104,0.0938 -0.0178,0.18784 -0.0247,0.28197 -0.005,0.0656 -0.009,0.13124 -0.0141,0.19685 -0.004,0.0585 -0.008,0.11699 -0.0125,0.17549 -0.004,0.0557 -0.007,0.11143 -0.0112,0.16714 -0.004,0.0512 -0.007,0.10252 -0.0107,0.15378 -0.004,0.056 -0.008,0.11204 -0.0106,0.16813 -0.002,0.0538 -0.004,0.10766 -0.006,0.16148 -0.002,0.042 -0.003,0.084 -0.005,0.12591 -0.002,0.0386 -0.003,0.0771 -0.005,0.1157 -10e-4,0.0356 -0.003,0.0711 -0.004,0.10672 -0.001,0.0328 -0.003,0.0656 -0.004,0.0984 -0.004,0.0639 -0.003,0.12789 -0.002,0.19189 l 3.56599,-0.0895 c -8.3e-4,0.17024 5e-5,0.0455 0.002,0.006 6.8e-4,-0.0328 0.001,-0.0656 0.002,-0.0985 7.4e-4,-0.0356 10e-4,-0.0712 0.002,-0.10675 8.2e-4,-0.0386 0.002,-0.0772 0.002,-0.11573 8.7e-4,-0.0417 0.002,-0.0834 0.003,-0.12505 7.7e-4,-0.0366 0.002,-0.0731 0.003,-0.10964 0.001,-0.0279 0.004,-0.0795 0.006,-0.11631 0.003,-0.0512 0.005,-0.10238 0.008,-0.15355 0.003,-0.0538 0.006,-0.10757 0.009,-0.16136 0.003,-0.0585 0.006,-0.117 0.009,-0.1755 0.003,-0.0612 0.006,-0.12238 0.01,-0.18356 0.002,-0.0414 0.005,-0.0827 0.009,-0.12392 0.006,-0.0619 0.0132,-0.12383 0.0195,-0.18579 0.008,-0.0689 0.0169,-0.1377 0.0257,-0.20655 0.0104,-0.0817 0.0208,-0.16349 0.0312,-0.24524 0.0108,-0.0847 0.0214,-0.16948 0.0331,-0.25412 0.0115,-0.0859 0.0246,-0.17165 0.037,-0.25745 0.0143,-0.0974 0.0285,-0.19479 0.0431,-0.29212 0.0135,-0.0883 0.0286,-0.17627 0.0447,-0.26412 0.0193,-0.10322 0.0387,-0.20644 0.0587,-0.3095 0.0167,-0.0862 0.0347,-0.17219 0.055,-0.25762 0.0162,-0.0619 0.0334,-0.12362 0.0557,-0.18376 0.0347,-0.094 0.0692,-0.1881 0.10737,-0.28076 0.0319,-0.0768 0.0639,-0.15364 0.10113,-0.22806 0.0342,-0.0688 0.0707,-0.13644 0.11131,-0.20169 0.0426,-0.068 0.0867,-0.13494 0.13547,-0.19866 0.058,-0.0754 0.11829,-0.1491 0.18132,-0.22038 0.0663,-0.0729 0.13321,-0.14532 0.20593,-0.212 0.0937,-0.0886 0.1889,-0.17561 0.2861,-0.26042 0.097,-0.0846 0.19556,-0.16759 0.29727,-0.24663 0.11523,-0.0899 0.23176,-0.1781 0.35077,-0.26297 0.12413,-0.0888 0.24877,-0.1769 0.37661,-0.26031 0.11791,-0.0763 0.23726,-0.15039 0.36072,-0.21743 0.1371,-0.0741 0.27495,-0.14704 0.4165,-0.21235 0.13189,-0.0603 0.26505,-0.11802 0.40238,-0.16503 0.16482,-0.0566 0.33126,-0.10815 0.49924,-0.15452 0.17359,-0.0474 0.34755,-0.094 0.52376,-0.13086 0.16933,-0.0347 0.33967,-0.0642 0.51155,-0.0834 0.20018,-0.0225 0.4007,-0.0421 0.60179,-0.0555 0.20777,-0.0132 0.41573,-0.0235 0.62393,-0.0262 0.23368,-0.002 0.46742,-0.002 0.70109,0.002 0.25217,0.003 0.50431,0.008 0.75644,0.0148 0.26726,0.007 0.53444,0.0163 0.80156,0.0268 0.26841,0.01 0.5368,0.0209 0.80517,0.0319 0.27288,0.0104 0.54576,0.0211 0.81866,0.0308 0.28802,0.01 0.57602,0.0198 0.86411,0.0283 0.29493,0.008 0.58984,0.0147 0.88486,0.0194 0.29438,0.003 0.58878,0.005 0.88318,0.003 0.29258,-0.002 0.58519,-0.004 0.87777,-0.008 0.30119,-0.004 0.60242,-0.008 0.90356,-0.0165 0.30058,-0.009 0.60113,-0.0181 0.90163,-0.0301 0.31001,-0.0129 0.62003,-0.0258 0.92991,-0.0417 0.31554,-0.0174 0.63099,-0.036 0.94593,-0.0622 0.31058,-0.0262 0.62104,-0.0538 0.93108,-0.0854 0.32296,-0.0335 0.64575,-0.0684 0.96726,-0.11367 0.30648,-0.0449 0.61243,-0.0931 0.91772,-0.1454 0.31611,-0.0535 0.63237,-0.10634 0.94741,-0.16591 0.3101,-0.0605 0.61949,-0.12401 0.92723,-0.19564 0.299,-0.0694 0.59782,-0.13971 0.89579,-0.21355 0.30982,-0.0775 0.61956,-0.15567 0.92708,-0.24205 0.29729,-0.0854 0.59407,-0.17256 0.88917,-0.26538 0.30156,-0.0956 0.60284,-0.19214 0.90169,-0.29591 0.30914,-0.10996 0.61679,-0.22401 0.91812,-0.35405 0.28829,-0.12503 0.57508,-0.25354 0.8564,-0.39372 0.2685,-0.13576 0.53513,-0.27503 0.79627,-0.42453 0.26294,-0.15098 0.52542,-0.30295 0.78122,-0.46597 0.26257,-0.17104 0.52265,-0.34631 0.76687,-0.54318 0.23765,-0.19357 0.4704,-0.39325 0.68634,-0.61113 0.20513,-0.21056 0.40417,-0.42724 0.58147,-0.6622 0.16129,-0.21783 0.31568,-0.44063 0.45103,-0.67572 0.1144,-0.19849 0.22623,-0.39841 0.33029,-0.60254 0.0971,-0.19338 0.19235,-0.38775 0.2777,-0.58673 0.0766,-0.18128 0.15035,-0.3637 0.21922,-0.54808 0.0635,-0.1694 0.1275,-0.33857 0.18575,-0.50985 0.051,-0.15624 0.10047,-0.31299 0.14038,-0.47251 0.0252,-0.10196 0.05,-0.20401 0.0755,-0.30589 0.0305,-0.1292 0.0613,-0.25935 0.063,-0.39289 l -3.45857,-0.52334 z"
       id="path3595"
       style="display:inline;overflow:visible;visibility:visible;fill:#0197fd;fill-opacity:1;fill-rule:nonzero;stroke:none;stroke-width:1.5;marker:none;enable-background:accumulate"
       inkscape:connector-curvature="0" />
    <path
       style="display:inline;overflow:visible;visibility:visible;opacity:1;fill:#eec73e;fill-opacity:1;fill-rule:nonzero;stroke:none;stroke-width:1.5;stroke-linecap:butt;stroke-linejoin:miter;stroke-miterlimit:4;stroke-dasharray:none;stroke-dashoffset:0;stroke-opacity:1;marker:none;marker-start:none;marker-mid:none;marker-end:none;enable-background:accumulate"
       id="path3607"
       d="m 223.23896,635.80204 c 0.0219,0.0824 0.0196,0.16858 0.0186,0.25317 -4.8e-4,0.14464 -0.006,0.2893 -0.0146,0.43371 -0.009,0.16233 -0.0184,0.32465 -0.0285,0.48689 -0.01,0.18624 -0.0236,0.37224 -0.0428,0.55774 -0.0246,0.24159 -0.0651,0.48117 -0.11023,0.71967 -0.0451,0.23703 -0.0942,0.47329 -0.1474,0.70861 -0.0605,0.27657 -0.13636,0.54942 -0.2209,0.81949 -0.0917,0.2891 -0.19747,0.57343 -0.30553,0.85669 -0.10009,0.26347 -0.20405,0.52541 -0.31503,0.78444 -0.12476,0.29378 -0.27213,0.57702 -0.42479,0.85702 -0.15145,0.27875 -0.31607,0.54992 -0.49061,0.81471 -0.18543,0.28048 -0.38986,0.54763 -0.60184,0.80837 -0.21383,0.26228 -0.44131,0.51299 -0.67285,0.75962 -0.22694,0.24228 -0.46292,0.47574 -0.70423,0.70367 -0.24267,0.22921 -0.49601,0.44672 -0.75438,0.65794 -0.26392,0.21548 -0.53585,0.42095 -0.81113,0.62159 -0.27973,0.20436 -0.56802,0.39655 -0.86071,0.58171 -0.29515,0.18679 -0.59633,0.36385 -0.90017,0.536 -0.31338,0.17893 -0.63112,0.35001 -0.95112,0.51675 -0.31506,0.16458 -0.63378,0.32196 -0.95384,0.47647 -0.31541,0.15238 -0.63204,0.3022 -0.94985,0.44954 -0.31189,0.14532 -0.62546,0.28711 -0.93993,0.42676 -0.30765,0.13634 -0.61617,0.27064 -0.92538,0.40335 -0.30241,0.13035 -0.60484,0.26075 -0.90755,0.39046 -0.29776,0.12758 -0.59578,0.25451 -0.89436,0.38011 -0.29317,0.12393 -0.58612,0.24829 -0.8797,0.3711 -0.28936,0.12183 -0.57877,0.24339 -0.86895,0.36318 -0.29021,0.12031 -0.57945,0.2428 -0.86922,0.36412 -0.28848,0.12153 -0.57635,0.24444 -0.86421,0.36739 -0.28588,0.12259 -0.5702,0.2487 -0.85337,0.37755 -0.27681,0.12586 -0.55204,0.2551 -0.82733,0.38424 -0.2612,0.12248 -0.52015,0.24964 -0.77803,0.37892 -0.25779,0.13076 -0.51357,0.26548 -0.76952,0.39986 -0.23339,0.1214 -0.46571,0.24484 -0.69668,0.37078 -0.22523,0.12419 -0.44577,0.25663 -0.66577,0.3898 -0.21142,0.12815 -0.42241,0.25696 -0.63084,0.38994 -0.18716,0.11857 -0.36819,0.24631 -0.54793,0.37578 -0.19171,0.13912 -0.37978,0.2832 -0.56804,0.427 -0.18376,0.14017 -0.36549,0.28292 -0.54682,0.42626 -0.17939,0.14186 -0.35583,0.28728 -0.53154,0.43366 -0.17487,0.14629 -0.34807,0.29454 -0.52124,0.44286 -0.15838,0.13584 -0.3174,0.27092 -0.47517,0.40749 -0.14149,0.12138 -0.27798,0.24834 -0.41327,0.37652 -0.14333,0.13706 -0.28396,0.27689 -0.42395,0.41734 -0.12759,0.12761 -0.2546,0.25576 -0.3788,0.38665 -0.11818,0.12584 -0.23202,0.25563 -0.34613,0.38514 -0.11568,0.13159 -0.23143,0.26315 -0.3469,0.39493 -0.0864,0.0983 -0.17152,0.19775 -0.25116,0.30163 -0.0823,0.10785 -0.15858,0.22012 -0.23541,0.33187 -0.078,0.11265 -0.15341,0.22703 -0.22788,0.34198 -0.0675,0.10744 -0.1319,0.21683 -0.19576,0.32646 -0.0632,0.10841 -0.12428,0.21811 -0.18429,0.32832 -0.0529,0.0972 -0.10036,0.19727 -0.14738,0.29742 -0.0529,0.11439 -0.10427,0.22953 -0.15354,0.34557 -0.0472,0.11168 -0.093,0.22388 -0.13702,0.33684 -0.0412,0.10391 -0.0782,0.20941 -0.11588,0.31469 -0.0345,0.0966 -0.0648,0.19458 -0.0944,0.29278 -0.0298,0.10234 -0.0551,0.20584 -0.0803,0.30937 -0.0259,0.10959 -0.0485,0.21989 -0.071,0.3302 -0.0211,0.10733 -0.04,0.21509 -0.0579,0.32302 -0.0173,0.11202 -0.0317,0.22443 -0.0438,0.33708 -0.0124,0.11312 -0.021,0.22653 -0.0291,0.33998 -0.008,0.10996 -0.0122,0.22009 -0.015,0.33027 -0.002,0.12842 0,0.25689 0.002,0.38533 0.002,0.13006 0.006,0.26008 0.0104,0.3901 0.005,0.12907 0.0102,0.25811 0.0163,0.38718 0.005,0.12134 0.0145,0.2425 0.0219,0.36374 0.007,0.11392 0.0152,0.22787 0.0245,0.34165 0.008,0.10484 0.0186,0.20942 0.0293,0.31404 0.0114,0.10707 0.0236,0.21409 0.0357,0.32111 0.0115,0.102 0.023,0.20398 0.0345,0.30593 0.0106,0.0907 0.02,0.18156 0.0323,0.27206 l -3.50734,0.37594 c -0.008,-0.0956 -0.0173,-0.19098 -0.0261,-0.2865 -0.01,-0.10229 -0.0192,-0.20457 -0.0288,-0.30685 -0.0107,-0.11416 -0.0214,-0.22827 -0.0321,-0.34238 -0.0122,-0.1308 -0.0226,-0.26176 -0.0317,-0.39281 -0.009,-0.13314 -0.0182,-0.26629 -0.0252,-0.39954 -0.008,-0.13754 -0.0138,-0.27511 -0.0187,-0.41275 -0.006,-0.1432 -0.0107,-0.28647 -0.0152,-0.42972 -0.004,-0.15132 -0.007,-0.30274 -0.008,-0.45411 -0.002,-0.16174 -0.003,-0.32348 -0.002,-0.48522 0.002,-0.17239 0.006,-0.34475 0.0182,-0.51675 0.0109,-0.16292 0.0255,-0.32557 0.0435,-0.48789 0.0187,-0.16453 0.0388,-0.32895 0.0632,-0.49278 0.024,-0.15901 0.0509,-0.31763 0.0823,-0.47533 0.0307,-0.15228 0.0639,-0.30409 0.10044,-0.45507 0.0385,-0.16005 0.0792,-0.31955 0.12496,-0.4777 0.0462,-0.15838 0.0952,-0.31592 0.15049,-0.47134 0.0516,-0.14667 0.10625,-0.29219 0.16404,-0.43655 0.058,-0.14439 0.11789,-0.28802 0.18058,-0.43042 0.0647,-0.14838 0.13094,-0.2961 0.19987,-0.44253 0.0762,-0.16291 0.15413,-0.32512 0.24001,-0.48321 0.0789,-0.14553 0.16101,-0.28926 0.24672,-0.43089 0.0903,-0.1521 0.18153,-0.30366 0.27757,-0.45226 0.096,-0.14808 0.19541,-0.29392 0.29817,-0.43745 0.11269,-0.15957 0.22631,-0.31858 0.34543,-0.47349 0.12783,-0.16351 0.26032,-0.32332 0.4002,-0.47673 0.12048,-0.13358 0.24224,-0.26601 0.36334,-0.39903 0.14057,-0.15405 0.28042,-0.30877 0.42396,-0.46005 0.14869,-0.15506 0.30082,-0.30671 0.45605,-0.45524 0.15832,-0.15365 0.31645,-0.30753 0.47651,-0.4594 0.17404,-0.16529 0.35001,-0.32867 0.53203,-0.48515 0.16964,-0.14621 0.34273,-0.28825 0.51559,-0.43054 0.18195,-0.15014 0.36374,-0.30045 0.54629,-0.44976 0.19623,-0.16189 0.3926,-0.32368 0.59228,-0.48131 0.19997,-0.15843 0.40137,-0.31512 0.60587,-0.46761 0.21183,-0.15932 0.42457,-0.31741 0.63936,-0.47271 0.2355,-0.16929 0.47361,-0.33518 0.71928,-0.48953 0.23502,-0.14735 0.47333,-0.28925 0.71337,-0.42829 0.25541,-0.14955 0.51014,-0.30039 0.76876,-0.44434 0.2581,-0.14272 0.51985,-0.27852 0.78367,-0.41036 0.26821,-0.13466 0.5362,-0.26981 0.80457,-0.40413 0.28602,-0.14335 0.57346,-0.28386 0.86395,-0.41796 0.2889,-0.13419 0.57945,-0.26485 0.87034,-0.39468 0.30094,-0.13469 0.6023,-0.26852 0.90492,-0.39944 0.29603,-0.12882 0.59302,-0.25545 0.89052,-0.38091 0.29227,-0.1237 0.5848,-0.24693 0.87748,-0.36976 0.28859,-0.12175 0.57851,-0.24035 0.86754,-0.36122 0.29152,-0.12189 0.58311,-0.24361 0.87439,-0.36621 0.29331,-0.12334 0.58677,-0.24628 0.88014,-0.36951 0.30002,-0.12737 0.6002,-0.25445 0.89934,-0.38383 0.29736,-0.12822 0.59481,-0.25613 0.89139,-0.38608 0.29776,-0.13198 0.59569,-0.26362 0.89164,-0.3997 0.29933,-0.13873 0.59817,-0.2785 0.89492,-0.42267 0.29016,-0.14195 0.58042,-0.28386 0.8666,-0.43377 0.27789,-0.14547 0.55447,-0.29355 0.82478,-0.45279 0.25697,-0.1515 0.51265,-0.30511 0.76325,-0.46698 0.2317,-0.15018 0.46204,-0.30257 0.68487,-0.4658 0.22016,-0.16163 0.43788,-0.32657 0.648,-0.50112 0.19948,-0.16787 0.39702,-0.3381 0.58722,-0.51656 0.19034,-0.17914 0.37779,-0.36146 0.5567,-0.55209 0.17204,-0.18482 0.34185,-0.37194 0.49897,-0.56976 0.13995,-0.17804 0.27679,-0.35873 0.40045,-0.54862 0.12189,-0.18891 0.23935,-0.38071 0.34694,-0.57817 0.10074,-0.18634 0.19539,-0.37581 0.27722,-0.57133 0.0931,-0.2195 0.18469,-0.43962 0.27037,-0.66213 0.0785,-0.20497 0.15408,-0.41126 0.21482,-0.62233 0.0515,-0.18585 0.0986,-0.37282 0.13708,-0.56185 0.0387,-0.19121 0.0771,-0.38254 0.10814,-0.57522 0.0214,-0.14254 0.0415,-0.28531 0.05,-0.42931 0.008,-0.14397 0.0158,-0.28796 0.0213,-0.43209 0.005,-0.13555 0.0111,-0.2711 0.01,-0.40679 -0.002,-0.0909 -0.006,-0.1817 -0.0111,-0.27247 -0.005,-0.11371 -0.01,-0.22869 0.0126,-0.34105 l 3.48849,0.0204 z"
       inkscape:connector-curvature="0" />
    <path
       style="display:inline;overflow:visible;visibility:visible;opacity:1;fill:#eec73e;fill-opacity:1;fill-rule:nonzero;stroke:none;stroke-width:1.5;stroke-linecap:butt;stroke-linejoin:miter;stroke-miterlimit:4;stroke-dasharray:none;stroke-dashoffset:0;stroke-opacity:1;marker:none;marker-start:none;marker-mid:none;marker-end:none;enable-background:accumulate"
       id="path3609"
       d="m 187.39254,655.09238 c 0.10734,0.11012 0.18281,0.2462 0.25608,0.38016 0.0675,0.12592 0.13277,0.25305 0.19749,0.38045 0.0654,0.1283 0.1311,0.25646 0.19461,0.38571 0.081,0.16283 0.15877,0.32718 0.23566,0.49195 0.0779,0.16609 0.15657,0.33184 0.23346,0.49846 0.0793,0.17151 0.15671,0.34386 0.23144,0.51739 0.0824,0.18961 0.16069,0.38097 0.23812,0.57267 0.0743,0.18423 0.14909,0.36825 0.22262,0.55278 0.0744,0.18395 0.14637,0.36891 0.21607,0.55469 0.0732,0.19462 0.14305,0.39043 0.21246,0.58641 0.0684,0.19056 0.13534,0.38162 0.20004,0.57348 0.0682,0.20008 0.13284,0.4013 0.1959,0.60307 0.0603,0.19279 0.12089,0.38551 0.18007,0.57864 0.0599,0.19485 0.11637,0.39071 0.1713,0.58702 0.0541,0.1947 0.10835,0.38942 0.16188,0.58429 0.0503,0.18148 0.10008,0.36314 0.1484,0.54515 0.0482,0.18204 0.094,0.36471 0.13879,0.54763 0.0416,0.16898 0.0845,0.33764 0.12608,0.50665 0.0415,0.16444 0.0807,0.3295 0.11771,0.49502 0.0377,0.16922 0.0738,0.33878 0.10919,0.50848 0.035,0.16301 0.0692,0.32622 0.1,0.49006 0.034,0.17973 0.064,0.36017 0.0931,0.54073 0.0271,0.16465 0.0537,0.32938 0.0808,0.49402 0.0254,0.15294 0.0507,0.30587 0.0738,0.45913 0.0231,0.15323 0.0456,0.30652 0.0676,0.45988 0.0211,0.14456 0.0426,0.28898 0.0629,0.43363 0.0198,0.13847 0.0392,0.27699 0.0581,0.41557 0.0182,0.1351 0.0364,0.2702 0.0533,0.40547 0.0169,0.13617 0.0328,0.27247 0.0485,0.4088 0.015,0.12688 0.0307,0.2537 0.0462,0.3805 0.0143,0.11644 0.0286,0.23285 0.0429,0.34928 0.0133,0.10673 0.0259,0.21357 0.0397,0.32022 0.0117,0.0929 0.0235,0.18567 0.0369,0.27827 0.008,0.0614 0.0194,0.12214 0.0324,0.1826 0.007,0.0205 0.027,0.11821 0.0102,0.0193 -0.0389,-0.21374 -0.14574,-0.40004 -0.26387,-0.57876 -0.29474,-0.41058 -0.72873,-0.58783 -1.20847,-0.67865 -0.24757,-0.0226 -0.49443,0.009 -0.72701,0.0952 -0.0665,0.0235 -0.12726,0.0578 -0.18821,0.0927 -0.0795,0.0477 -0.15247,0.10517 -0.21961,0.16886 -0.0188,0.0185 -0.0225,0.024 -0.0397,0.0453 0.002,0.003 -0.0255,0.0353 0.006,-3.9e-4 0.0391,-0.0547 0.0731,-0.11268 0.10781,-0.17015 0.0402,-0.067 0.0785,-0.13514 0.11823,-0.20248 0.0382,-0.065 0.0757,-0.1304 0.11313,-0.19583 0.0461,-0.083 0.0905,-0.16699 0.13439,-0.25117 0.0452,-0.0852 0.0893,-0.17098 0.13432,-0.25627 0.0502,-0.0972 0.0986,-0.19539 0.14586,-0.2941 0.0561,-0.11632 0.11004,-0.2336 0.16621,-0.34985 0.0566,-0.11843 0.11369,-0.23671 0.17197,-0.35437 0.066,-0.13303 0.1332,-0.26545 0.20069,-0.39773 0.0623,-0.12395 0.125,-0.24772 0.18725,-0.37171 0.0669,-0.13422 0.13712,-0.26681 0.20919,-0.39837 0.0759,-0.13841 0.15147,-0.27707 0.22668,-0.4159 0.0708,-0.1302 0.14003,-0.26128 0.21201,-0.3908 0.0831,-0.15043 0.17232,-0.29728 0.26193,-0.44387 0.0824,-0.1349 0.16416,-0.27028 0.24588,-0.40563 0.077,-0.12794 0.15437,-0.2557 0.2344,-0.38175 0.0846,-0.13339 0.17094,-0.26563 0.25755,-0.39769 0.0823,-0.1275 0.16558,-0.25438 0.24828,-0.38167 0.0793,-0.12285 0.15929,-0.24524 0.24235,-0.36557 0.0886,-0.12852 0.18012,-0.25498 0.26984,-0.38272 0.0796,-0.11378 0.1587,-0.22784 0.23793,-0.34182 0.0883,-0.12685 0.1802,-0.25105 0.27462,-0.37336 0.0911,-0.11762 0.18352,-0.23419 0.27583,-0.3509 0.0853,-0.10973 0.17234,-0.21821 0.26081,-0.32547 0.0957,-0.11613 0.19591,-0.22848 0.2961,-0.34081 0.0898,-0.0997 0.17851,-0.20038 0.26731,-0.301 0.0861,-0.0975 0.17246,-0.19488 0.26175,-0.28955 0.10385,-0.10962 0.21125,-0.21581 0.31773,-0.32291 0.099,-0.1009 0.19578,-0.20399 0.2929,-0.30673 0.0955,-0.10171 0.1921,-0.20242 0.28953,-0.30235 0.0968,-0.0986 0.194,-0.19679 0.29073,-0.29544 0.087,-0.0888 0.17398,-0.1777 0.26096,-0.26658 0.0908,-0.0919 0.18296,-0.18241 0.27589,-0.27214 0.0839,-0.0813 0.16794,-0.16241 0.25179,-0.24378 0.0765,-0.0742 0.15293,-0.14853 0.22939,-0.2228 0.0704,-0.0684 0.14074,-0.13676 0.21112,-0.20512 0.0649,-0.0631 0.12978,-0.12613 0.19471,-0.18919 0.0598,-0.0581 0.11971,-0.11632 0.17957,-0.17448 0.0552,-0.0536 0.11041,-0.10728 0.16565,-0.16091 0.0509,-0.0495 0.10183,-0.099 0.15277,-0.14841 0.0519,-0.0498 0.0242,-0.0236 0.0833,-0.0785 l 2.37415,2.63063 c -0.005,0.004 -0.0254,-0.0298 -0.0141,0.0109 -0.0519,0.0485 -0.10373,0.097 -0.15556,0.14552 -0.0562,0.0526 -0.11244,0.1052 -0.16866,0.15776 -0.0609,0.057 -0.1219,0.11406 -0.18286,0.17105 -0.0661,0.0618 -0.13216,0.12366 -0.19826,0.18545 -0.0717,0.067 -0.14329,0.13405 -0.21493,0.20108 -0.0775,0.0725 -0.15499,0.14494 -0.23244,0.21749 -0.0811,0.0761 -0.16189,0.15254 -0.24225,0.22944 -0.0762,0.0732 -0.15149,0.14731 -0.22721,0.22104 -0.0883,0.0869 -0.17656,0.1737 -0.26475,0.26067 -0.09,0.0889 -0.17981,0.17809 -0.26805,0.26883 -0.0915,0.0935 -0.18308,0.18708 -0.27477,0.28048 -0.10248,0.10464 -0.20522,0.20905 -0.30622,0.31512 -0.0831,0.0883 -0.16422,0.17816 -0.24485,0.26863 -0.0768,0.0858 -0.15586,0.1695 -0.23337,0.25465 -0.0853,0.0932 -0.17087,0.1861 -0.2545,0.28081 -0.0727,0.0826 -0.14492,0.16558 -0.21498,0.25047 -0.0767,0.0925 -0.15261,0.18565 -0.22812,0.27914 -0.0772,0.0956 -0.1557,0.19027 -0.22918,0.28884 -0.0679,0.0905 -0.13411,0.18197 -0.20015,0.27377 -0.0814,0.11249 -0.16276,0.22497 -0.2438,0.3377 -0.0769,0.10751 -0.1533,0.21542 -0.22627,0.32569 -0.0734,0.11067 -0.14787,0.22057 -0.22224,0.33053 -0.0798,0.11839 -0.15919,0.23699 -0.23728,0.35651 -0.0749,0.11612 -0.1491,0.23262 -0.22198,0.35001 -0.0736,0.11938 -0.14873,0.23777 -0.22276,0.3569 -0.0787,0.12522 -0.15785,0.2502 -0.23363,0.37719 -0.065,0.10972 -0.12696,0.22103 -0.18801,0.33294 -0.0684,0.12459 -0.13852,0.2482 -0.20768,0.37239 -0.0686,0.12468 -0.13657,0.24976 -0.20164,0.37636 -0.0584,0.11567 -0.11702,0.23121 -0.17542,0.34684 -0.063,0.12343 -0.12787,0.24587 -0.1895,0.36995 -0.0568,0.11325 -0.11228,0.22711 -0.16656,0.3416 -0.0533,0.1139 -0.10632,0.22789 -0.16064,0.34129 -0.0523,0.11095 -0.10585,0.22133 -0.15836,0.33219 -0.0565,0.12184 -0.11275,0.24387 -0.16982,0.36547 -0.0511,0.1076 -0.10441,0.21414 -0.15994,0.31958 -0.0516,0.0991 -0.10356,0.19803 -0.15471,0.29737 -0.0501,0.0976 -0.10098,0.19482 -0.15549,0.29004 -0.0469,0.0825 -0.096,0.16381 -0.14483,0.24521 -0.0522,0.0884 -0.10353,0.17732 -0.15626,0.2654 -0.0676,0.1099 -0.13668,0.21912 -0.21735,0.32005 -0.0767,0.0953 -0.15621,0.18831 -0.24373,0.27399 -0.12701,0.126 -0.26399,0.24222 -0.41729,0.33537 -0.12078,0.0704 -0.24353,0.13731 -0.37456,0.18708 -0.28554,0.10751 -0.58441,0.1665 -0.89126,0.13706 -0.52443,-0.096 -0.99346,-0.29102 -1.31713,-0.73674 -0.15692,-0.23337 -0.28841,-0.4794 -0.34342,-0.75817 -0.0203,-0.10026 -0.0374,-0.20091 -0.0482,-0.30269 -0.0106,-0.0949 -0.0204,-0.18978 -0.0298,-0.28475 -0.01,-0.0999 -0.0203,-0.19981 -0.0305,-0.29969 -0.0108,-0.10803 -0.0223,-0.21595 -0.0334,-0.32396 -0.0121,-0.11664 -0.0242,-0.23329 -0.0363,-0.34993 -0.013,-0.12529 -0.0259,-0.2506 -0.0397,-0.37582 -0.0143,-0.12473 -0.0289,-0.24944 -0.0446,-0.37402 -0.0159,-0.12717 -0.0314,-0.25441 -0.0477,-0.38155 -0.017,-0.133 -0.034,-0.26603 -0.0515,-0.39899 -0.0187,-0.14005 -0.0368,-0.28016 -0.0558,-0.42015 -0.0198,-0.14228 -0.0397,-0.28452 -0.0612,-0.42654 -0.0226,-0.14852 -0.0441,-0.29719 -0.0658,-0.4458 -0.0231,-0.15729 -0.0463,-0.31453 -0.071,-0.47162 -0.0238,-0.14505 -0.0502,-0.28959 -0.0795,-0.43367 -0.0301,-0.14897 -0.0594,-0.29817 -0.0893,-0.44716 -0.0308,-0.14927 -0.0621,-0.29848 -0.0961,-0.44709 -0.0349,-0.1515 -0.0701,-0.30293 -0.1049,-0.45445 -0.0384,-0.16488 -0.0761,-0.32989 -0.11523,-0.49457 -0.04,-0.16441 -0.0806,-0.32865 -0.12289,-0.49248 -0.0449,-0.1744 -0.0899,-0.34876 -0.13532,-0.52299 -0.0474,-0.17966 -0.0943,-0.35946 -0.14552,-0.53807 -0.0511,-0.17628 -0.10279,-0.3524 -0.15517,-0.52829 -0.0549,-0.18252 -0.11004,-0.36502 -0.16638,-0.54713 -0.0556,-0.17576 -0.11269,-0.35105 -0.17348,-0.52511 -0.0608,-0.1766 -0.12204,-0.35304 -0.18398,-0.52922 -0.0612,-0.17137 -0.12229,-0.34277 -0.18804,-0.51243 -0.0661,-0.17 -0.13232,-0.3399 -0.1991,-0.50961 -0.0691,-0.17438 -0.13722,-0.34918 -0.20826,-0.5228 -0.0666,-0.16059 -0.13459,-0.32055 -0.20685,-0.47871 -0.0699,-0.15294 -0.13965,-0.30596 -0.2106,-0.45845 -0.0705,-0.15095 -0.14009,-0.30234 -0.21335,-0.452 -0.0657,-0.13145 -0.13155,-0.26276 -0.2029,-0.39121 -0.0662,-0.11907 -0.13149,-0.23868 -0.19698,-0.35811 -0.0469,-0.0843 -0.0934,-0.16885 -0.1456,-0.25008 -0.0252,-0.0373 -0.0499,-0.0727 -0.0608,-0.11747 l 2.84697,-2.02692 z"
       inkscape:connector-curvature="0" />
    <path
       d="m 220.37034,635.80204 c -0.022,0.0824 -0.0196,0.16858 -0.0186,0.25317 4.8e-4,0.14464 0.006,0.2893 0.0146,0.43371 0.009,0.16233 0.0184,0.32465 0.0285,0.48689 0.01,0.18624 0.0236,0.37224 0.0427,0.55774 0.0246,0.24159 0.0651,0.48117 0.11022,0.71967 0.0451,0.23703 0.0942,0.47329 0.1474,0.70861 0.0605,0.27657 0.13634,0.54942 0.22089,0.81949 0.0917,0.2891 0.19747,0.57343 0.30553,0.85669 0.10009,0.26347 0.20406,0.52541 0.31502,0.78444 0.12477,0.29378 0.27214,0.57702 0.4248,0.85702 0.15149,0.27875 0.31607,0.54992 0.49063,0.81471 0.18542,0.28048 0.38984,0.54763 0.60182,0.80837 0.21382,0.26228 0.4413,0.51299 0.67287,0.75962 0.22694,0.24228 0.46292,0.47574 0.70421,0.70367 0.24269,0.22921 0.496,0.44672 0.75438,0.65794 0.26394,0.21548 0.53585,0.42095 0.81112,0.62159 0.27974,0.20436 0.56803,0.39655 0.86072,0.58171 0.29515,0.18679 0.59634,0.36385 0.90017,0.536 0.31338,0.17893 0.63113,0.35001 0.95113,0.51675 0.31506,0.16458 0.63377,0.32196 0.95384,0.47647 0.31541,0.15238 0.63205,0.3022 0.94984,0.44954 0.3119,0.14532 0.62547,0.28711 0.93992,0.42676 0.30766,0.13634 0.6162,0.27064 0.92539,0.40335 0.30245,0.13035 0.60484,0.26075 0.90755,0.39046 0.29775,0.12758 0.59579,0.25451 0.89439,0.38011 0.29313,0.12393 0.5861,0.24829 0.87971,0.3711 0.28933,0.12183 0.57876,0.24339 0.86893,0.36318 0.29019,0.12031 0.57945,0.2428 0.86922,0.36412 0.28846,0.12153 0.57632,0.24444 0.86418,0.36739 0.28589,0.12259 0.57024,0.2487 0.85337,0.37755 0.27681,0.12586 0.55206,0.2551 0.82735,0.38424 0.26119,0.12248 0.52013,0.24964 0.77802,0.37892 0.25779,0.13076 0.51359,0.26548 0.76952,0.39986 0.23341,0.1214 0.46571,0.24484 0.69667,0.37078 0.22524,0.12419 0.44578,0.25663 0.66578,0.3898 0.21142,0.12815 0.42242,0.25696 0.63084,0.38994 0.18717,0.11857 0.36819,0.24631 0.54793,0.37578 0.19171,0.13912 0.37978,0.2832 0.56804,0.427 0.18375,0.14017 0.36549,0.28292 0.54681,0.42626 0.17939,0.14186 0.35585,0.28728 0.53154,0.43366 0.17487,0.14629 0.34808,0.29454 0.52125,0.44286 0.15837,0.13584 0.31742,0.27092 0.47516,0.40749 0.1415,0.12138 0.278,0.24834 0.41327,0.37652 0.14336,0.13706 0.28398,0.27689 0.42396,0.41734 0.12759,0.12761 0.25459,0.25576 0.3788,0.38665 0.11818,0.12584 0.23201,0.25563 0.34612,0.38514 0.11571,0.13159 0.23144,0.26315 0.3469,0.39493 0.0864,0.0983 0.17153,0.19775 0.25117,0.30163 0.0823,0.10785 0.15858,0.22012 0.23543,0.33187 0.078,0.11265 0.15339,0.22703 0.22788,0.34198 0.0675,0.10744 0.13188,0.21683 0.19573,0.32646 0.0632,0.10841 0.12429,0.21811 0.18431,0.32832 0.0529,0.0972 0.10035,0.19727 0.14737,0.29742 0.0529,0.11439 0.10427,0.22953 0.15356,0.34557 0.0472,0.11168 0.093,0.22388 0.13704,0.33684 0.0412,0.10391 0.0782,0.20941 0.11584,0.31469 0.0345,0.0966 0.0649,0.19458 0.0944,0.29278 0.0298,0.10234 0.0551,0.20584 0.0803,0.30937 0.0259,0.10959 0.0485,0.21989 0.071,0.3302 0.021,0.10733 0.04,0.21509 0.0579,0.32302 0.0172,0.11202 0.0316,0.22443 0.0438,0.33708 0.0123,0.11312 0.0209,0.22653 0.0291,0.33998 0.008,0.10996 0.0122,0.22009 0.015,0.33027 0.002,0.12842 0,0.25689 -0.002,0.38533 -0.002,0.13006 -0.006,0.26008 -0.0104,0.3901 -0.005,0.12907 -0.0103,0.25811 -0.0164,0.38718 -0.005,0.12134 -0.0145,0.2425 -0.0219,0.36374 -0.007,0.11392 -0.0152,0.22787 -0.0245,0.34165 -0.008,0.10484 -0.0186,0.20942 -0.0293,0.31404 -0.0115,0.10707 -0.0236,0.21409 -0.0357,0.32111 -0.0115,0.102 -0.023,0.20398 -0.0345,0.30593 -0.0106,0.0907 -0.02,0.18156 -0.0323,0.27206 l 3.50736,0.37594 c 0.008,-0.0956 0.0173,-0.19098 0.0261,-0.2865 0.01,-0.10229 0.0192,-0.20457 0.0288,-0.30685 0.0107,-0.11416 0.0214,-0.22827 0.0321,-0.34238 0.0122,-0.1308 0.0226,-0.26176 0.0317,-0.39281 0.009,-0.13314 0.0182,-0.26629 0.0252,-0.39954 0.008,-0.13754 0.0138,-0.27511 0.0187,-0.41275 0.006,-0.1432 0.0107,-0.28647 0.0152,-0.42972 0.004,-0.15132 0.007,-0.30274 0.008,-0.45411 0.002,-0.16174 0.003,-0.32348 0.002,-0.48522 -0.002,-0.17239 -0.006,-0.34475 -0.0182,-0.51675 -0.0109,-0.16292 -0.0255,-0.32557 -0.0435,-0.48789 -0.0187,-0.16453 -0.0388,-0.32895 -0.0632,-0.49278 -0.024,-0.15901 -0.0509,-0.31763 -0.0823,-0.47533 -0.0308,-0.15228 -0.0639,-0.30409 -0.10048,-0.45507 -0.0385,-0.16005 -0.0792,-0.31955 -0.12495,-0.4777 -0.0461,-0.15838 -0.0952,-0.31592 -0.15049,-0.47134 -0.0516,-0.14667 -0.10625,-0.29219 -0.16404,-0.43655 -0.058,-0.14439 -0.11788,-0.28802 -0.18059,-0.43042 -0.0647,-0.14838 -0.13093,-0.2961 -0.19987,-0.44253 -0.0762,-0.16291 -0.15413,-0.32512 -0.24,-0.48321 -0.0789,-0.14553 -0.16099,-0.28926 -0.2467,-0.43089 -0.0903,-0.1521 -0.18155,-0.30366 -0.27759,-0.45226 -0.096,-0.14808 -0.1954,-0.29392 -0.29817,-0.43745 -0.11268,-0.15957 -0.22632,-0.31858 -0.34543,-0.47349 -0.12783,-0.16351 -0.2603,-0.32332 -0.4002,-0.47673 -0.12049,-0.13358 -0.24222,-0.26601 -0.36335,-0.39903 -0.14056,-0.15405 -0.28039,-0.30877 -0.42396,-0.46005 -0.14869,-0.15506 -0.30081,-0.30671 -0.45604,-0.45524 -0.15833,-0.15365 -0.31645,-0.30753 -0.47651,-0.4594 -0.17401,-0.16529 -0.35,-0.32867 -0.53204,-0.48515 -0.16964,-0.14621 -0.34272,-0.28825 -0.51559,-0.43054 -0.18191,-0.15014 -0.36372,-0.30045 -0.54628,-0.44976 -0.19624,-0.16189 -0.39261,-0.32368 -0.59228,-0.48131 -0.19996,-0.15843 -0.40135,-0.31512 -0.60587,-0.46761 -0.21183,-0.15932 -0.42457,-0.31741 -0.63934,-0.47271 -0.23553,-0.16929 -0.47364,-0.33518 -0.7193,-0.48953 -0.23502,-0.14735 -0.47334,-0.28925 -0.71338,-0.42829 -0.2554,-0.14955 -0.51014,-0.30039 -0.76875,-0.44434 -0.2581,-0.14272 -0.51985,-0.27852 -0.78367,-0.41036 -0.2682,-0.13466 -0.53618,-0.26981 -0.80456,-0.40413 -0.28604,-0.14335 -0.57348,-0.28386 -0.86397,-0.41796 -0.28889,-0.13419 -0.57944,-0.26485 -0.87032,-0.39468 -0.30095,-0.13469 -0.60231,-0.26852 -0.90492,-0.39944 -0.29604,-0.12882 -0.59303,-0.25545 -0.89053,-0.38091 -0.29227,-0.1237 -0.5848,-0.24693 -0.87746,-0.36976 -0.28859,-0.12175 -0.57853,-0.24035 -0.86752,-0.36122 -0.29156,-0.12189 -0.58315,-0.24361 -0.87442,-0.36621 -0.29329,-0.12334 -0.58678,-0.24628 -0.88015,-0.36951 -0.3,-0.12737 -0.60018,-0.25445 -0.89935,-0.38383 -0.29733,-0.12822 -0.5948,-0.25613 -0.89136,-0.38608 -0.29777,-0.13198 -0.59572,-0.26362 -0.89164,-0.3997 -0.29935,-0.13873 -0.59818,-0.2785 -0.89495,-0.42267 -0.29016,-0.14195 -0.58042,-0.28386 -0.86659,-0.43377 -0.27787,-0.14547 -0.55447,-0.29355 -0.82477,-0.45279 -0.25695,-0.1515 -0.51266,-0.30511 -0.76326,-0.46698 -0.23171,-0.15018 -0.46204,-0.30257 -0.68488,-0.4658 -0.22012,-0.16163 -0.43788,-0.32657 -0.64799,-0.50112 -0.19948,-0.16787 -0.39702,-0.3381 -0.58722,-0.51656 -0.19035,-0.17914 -0.37778,-0.36146 -0.5567,-0.55209 -0.17205,-0.18482 -0.34185,-0.37194 -0.49898,-0.56976 -0.13994,-0.17804 -0.27676,-0.35873 -0.40045,-0.54862 -0.12187,-0.18891 -0.23935,-0.38071 -0.34693,-0.57817 -0.10073,-0.18634 -0.19537,-0.37581 -0.27722,-0.57133 -0.0931,-0.2195 -0.1847,-0.43962 -0.27037,-0.66213 -0.0785,-0.20497 -0.15409,-0.41126 -0.21483,-0.62233 -0.0515,-0.18585 -0.0986,-0.37282 -0.13706,-0.56185 -0.0387,-0.19121 -0.0772,-0.38254 -0.10815,-0.57522 -0.0214,-0.14254 -0.0415,-0.28531 -0.05,-0.42931 -0.008,-0.14397 -0.0158,-0.28796 -0.0212,-0.43209 -0.005,-0.13555 -0.0111,-0.2711 -0.01,-0.40679 0.002,-0.0909 0.006,-0.1817 0.0111,-0.27247 0.005,-0.11371 0.01,-0.22869 -0.0125,-0.34105 l -3.48849,0.0204 z"
       id="path3615"
       style="display:inline;overflow:visible;visibility:visible;opacity:1;fill:#eec73e;fill-opacity:1;fill-rule:nonzero;stroke:none;stroke-width:1.5;stroke-linecap:butt;stroke-linejoin:miter;stroke-miterlimit:4;stroke-dasharray:none;stroke-dashoffset:0;stroke-opacity:1;marker:none;marker-start:none;marker-mid:none;marker-end:none;enable-background:accumulate"
       inkscape:connector-curvature="0" />
    <path
       d="m 256.32018,655.09238 c -0.10734,0.11012 -0.1828,0.2462 -0.25606,0.38016 -0.0675,0.12592 -0.13278,0.25305 -0.19749,0.38045 -0.0654,0.1283 -0.13112,0.25646 -0.19463,0.38571 -0.081,0.16283 -0.15874,0.32718 -0.23564,0.49195 -0.0779,0.16609 -0.1566,0.33184 -0.23345,0.49846 -0.0793,0.17151 -0.15673,0.34386 -0.23144,0.51739 -0.0824,0.18961 -0.16072,0.38097 -0.23815,0.57267 -0.0743,0.18423 -0.14908,0.36825 -0.22261,0.55278 -0.0745,0.18395 -0.14638,0.36891 -0.21608,0.55469 -0.0732,0.19462 -0.14305,0.39043 -0.21247,0.58641 -0.0683,0.19056 -0.13533,0.38162 -0.20001,0.57348 -0.0682,0.20008 -0.13283,0.4013 -0.19592,0.60307 -0.0603,0.19279 -0.12088,0.38551 -0.18006,0.57864 -0.0599,0.19485 -0.11639,0.39071 -0.1713,0.58702 -0.0541,0.1947 -0.10837,0.38942 -0.16188,0.58429 -0.0503,0.18148 -0.1001,0.36314 -0.14842,0.54515 -0.0482,0.18204 -0.094,0.36471 -0.13878,0.54763 -0.0416,0.16898 -0.0845,0.33764 -0.12607,0.50665 -0.0415,0.16444 -0.0807,0.3295 -0.11773,0.49502 -0.0376,0.16922 -0.0737,0.33878 -0.10918,0.50848 -0.035,0.16301 -0.0692,0.32622 -0.10001,0.49006 -0.034,0.17973 -0.0639,0.36017 -0.0931,0.54073 -0.0271,0.16465 -0.0537,0.32938 -0.0808,0.49402 -0.0253,0.15294 -0.0507,0.30587 -0.0738,0.45913 -0.0231,0.15323 -0.0456,0.30652 -0.0676,0.45988 -0.0211,0.14456 -0.0426,0.28898 -0.0629,0.43363 -0.0198,0.13847 -0.0392,0.27699 -0.058,0.41557 -0.0182,0.1351 -0.0364,0.2702 -0.0533,0.40547 -0.0169,0.13617 -0.0328,0.27247 -0.0486,0.4088 -0.015,0.12688 -0.0307,0.2537 -0.0463,0.3805 -0.0143,0.11644 -0.0286,0.23285 -0.0429,0.34928 -0.0133,0.10673 -0.0259,0.21357 -0.0397,0.32022 -0.0117,0.0929 -0.0235,0.18567 -0.0369,0.27827 -0.008,0.0614 -0.0194,0.12214 -0.0324,0.1826 -0.007,0.0205 -0.027,0.11821 -0.0102,0.0193 0.0389,-0.21374 0.14573,-0.40004 0.26389,-0.57876 0.29471,-0.41058 0.72871,-0.58783 1.20846,-0.67865 0.24757,-0.0226 0.49443,0.009 0.72699,0.0952 0.0665,0.0235 0.12725,0.0578 0.1882,0.0927 0.0795,0.0477 0.15248,0.10517 0.21961,0.16886 0.0188,0.0185 0.0225,0.024 0.0398,0.0453 -0.002,0.003 0.0255,0.0353 -0.006,-3.9e-4 -0.0391,-0.0547 -0.0731,-0.11268 -0.10785,-0.17015 -0.0402,-0.067 -0.0785,-0.13514 -0.11822,-0.20248 -0.0382,-0.065 -0.0757,-0.1304 -0.11312,-0.19583 -0.0461,-0.083 -0.0905,-0.16699 -0.13441,-0.25117 -0.0452,-0.0852 -0.0892,-0.17098 -0.13431,-0.25627 -0.0502,-0.0972 -0.0986,-0.19539 -0.14586,-0.2941 -0.0561,-0.11632 -0.11005,-0.2336 -0.1662,-0.34985 -0.0567,-0.11843 -0.1137,-0.23671 -0.17196,-0.35437 -0.066,-0.13303 -0.13322,-0.26545 -0.2007,-0.39773 -0.0623,-0.12395 -0.125,-0.24772 -0.18727,-0.37171 -0.0669,-0.13422 -0.13712,-0.26681 -0.20918,-0.39837 -0.076,-0.13841 -0.15144,-0.27707 -0.22668,-0.4159 -0.0708,-0.1302 -0.14003,-0.26128 -0.21202,-0.3908 -0.0831,-0.15043 -0.17232,-0.29728 -0.26192,-0.44387 -0.0824,-0.1349 -0.16416,-0.27028 -0.24588,-0.40563 -0.077,-0.12794 -0.15434,-0.2557 -0.23441,-0.38175 -0.0846,-0.13339 -0.17094,-0.26563 -0.25755,-0.39769 -0.0823,-0.1275 -0.16558,-0.25438 -0.24827,-0.38167 -0.0793,-0.12285 -0.15929,-0.24524 -0.24235,-0.36557 -0.0886,-0.12852 -0.18013,-0.25498 -0.26984,-0.38272 -0.0795,-0.11378 -0.15871,-0.22784 -0.23791,-0.34182 -0.0883,-0.12685 -0.1802,-0.25105 -0.27465,-0.37336 -0.0911,-0.11762 -0.18348,-0.23419 -0.27582,-0.3509 -0.0853,-0.10973 -0.17233,-0.21821 -0.2608,-0.32547 -0.0958,-0.11613 -0.19592,-0.22848 -0.29612,-0.34081 -0.0898,-0.0997 -0.17847,-0.20038 -0.26728,-0.301 -0.0862,-0.0975 -0.17247,-0.19488 -0.26178,-0.28955 -0.10383,-0.10962 -0.21125,-0.21581 -0.31772,-0.32291 -0.099,-0.1009 -0.19579,-0.20399 -0.29289,-0.30673 -0.0956,-0.10171 -0.19212,-0.20242 -0.28954,-0.30235 -0.0968,-0.0986 -0.19399,-0.19679 -0.2907,-0.29544 -0.087,-0.0888 -0.17397,-0.1777 -0.26097,-0.26658 -0.0908,-0.0919 -0.18298,-0.18241 -0.27592,-0.27214 -0.0839,-0.0813 -0.16793,-0.16241 -0.25176,-0.24378 -0.0765,-0.0742 -0.15295,-0.14853 -0.22941,-0.2228 -0.0704,-0.0684 -0.14071,-0.13676 -0.2111,-0.20512 -0.0649,-0.0631 -0.12981,-0.12613 -0.19471,-0.18919 -0.0599,-0.0581 -0.11973,-0.11632 -0.1796,-0.17448 -0.0552,-0.0536 -0.1104,-0.10728 -0.16563,-0.16091 -0.0509,-0.0495 -0.10184,-0.099 -0.15278,-0.14841 -0.0519,-0.0498 -0.0242,-0.0236 -0.0833,-0.0785 l -2.37413,2.63063 c 0.005,0.004 0.0254,-0.0298 0.014,0.0109 0.0519,0.0485 0.10373,0.097 0.15556,0.14552 0.0562,0.0526 0.11244,0.1052 0.16867,0.15776 0.0609,0.057 0.12193,0.11406 0.18285,0.17105 0.0661,0.0618 0.13219,0.12366 0.19828,0.18545 0.0717,0.067 0.14327,0.13405 0.21495,0.20108 0.0775,0.0725 0.15495,0.14494 0.23241,0.21749 0.0811,0.0761 0.16188,0.15254 0.24226,0.22944 0.0762,0.0732 0.1515,0.14731 0.22722,0.22104 0.0883,0.0869 0.17657,0.1737 0.26473,0.26067 0.09,0.0889 0.17981,0.17809 0.26806,0.26883 0.0915,0.0935 0.1831,0.18708 0.27478,0.28048 0.10246,0.10464 0.20519,0.20905 0.30619,0.31512 0.0831,0.0883 0.16422,0.17816 0.24488,0.26863 0.0768,0.0858 0.15584,0.1695 0.23338,0.25465 0.0853,0.0932 0.17087,0.1861 0.25446,0.28081 0.0727,0.0826 0.14496,0.16558 0.215,0.25047 0.0767,0.0925 0.1526,0.18565 0.22814,0.27914 0.0772,0.0956 0.1557,0.19027 0.22916,0.28884 0.0678,0.0905 0.13413,0.18197 0.20014,0.27377 0.0814,0.11249 0.16276,0.22497 0.2438,0.3377 0.077,0.10751 0.15329,0.21542 0.22627,0.32569 0.0734,0.11067 0.14787,0.22057 0.22224,0.33053 0.0798,0.11839 0.15918,0.23699 0.23728,0.35651 0.0748,0.11612 0.1491,0.23262 0.22197,0.35001 0.0736,0.11938 0.14874,0.23777 0.22277,0.3569 0.0787,0.12522 0.15786,0.2502 0.23362,0.37719 0.065,0.10972 0.12697,0.22103 0.18801,0.33294 0.0684,0.12459 0.13854,0.2482 0.2077,0.37239 0.0686,0.12468 0.13659,0.24976 0.20163,0.37636 0.0584,0.11567 0.11703,0.23121 0.17543,0.34684 0.063,0.12343 0.12786,0.24587 0.18949,0.36995 0.0568,0.11325 0.11229,0.22711 0.16656,0.3416 0.0533,0.1139 0.10632,0.22789 0.16063,0.34129 0.0523,0.11095 0.10585,0.22133 0.15836,0.33219 0.0565,0.12184 0.11275,0.24387 0.16984,0.36547 0.0511,0.1076 0.10441,0.21414 0.15993,0.31958 0.0516,0.0991 0.10356,0.19803 0.15471,0.29737 0.0501,0.0976 0.10098,0.19482 0.15548,0.29004 0.0469,0.0825 0.096,0.16381 0.14484,0.24521 0.0523,0.0884 0.10354,0.17732 0.15627,0.2654 0.0676,0.1099 0.13666,0.21912 0.21734,0.32005 0.0767,0.0953 0.15621,0.18831 0.24373,0.27399 0.12701,0.126 0.26399,0.24222 0.41729,0.33537 0.12077,0.0704 0.24352,0.13731 0.37459,0.18708 0.2855,0.10751 0.58441,0.1665 0.89124,0.13706 0.52442,-0.096 0.99347,-0.29102 1.31712,-0.73674 0.15691,-0.23337 0.28841,-0.4794 0.34343,-0.75817 0.0202,-0.10026 0.0374,-0.20091 0.0482,-0.30269 0.0106,-0.0949 0.0204,-0.18978 0.0298,-0.28475 0.01,-0.0999 0.0202,-0.19981 0.0305,-0.29969 0.0108,-0.10803 0.0223,-0.21595 0.0334,-0.32396 0.0121,-0.11664 0.0242,-0.23329 0.0363,-0.34993 0.013,-0.12529 0.0259,-0.2506 0.0397,-0.37582 0.0143,-0.12473 0.029,-0.24944 0.0446,-0.37402 0.0159,-0.12717 0.0314,-0.25441 0.0477,-0.38155 0.017,-0.133 0.034,-0.26603 0.0515,-0.39899 0.0186,-0.14005 0.0367,-0.28016 0.0558,-0.42015 0.0197,-0.14228 0.0397,-0.28452 0.0611,-0.42654 0.0226,-0.14852 0.0441,-0.29719 0.0658,-0.4458 0.023,-0.15729 0.0463,-0.31453 0.0709,-0.47162 0.0238,-0.14505 0.0502,-0.28959 0.0795,-0.43367 0.0301,-0.14897 0.0593,-0.29817 0.0893,-0.44716 0.0309,-0.14927 0.0621,-0.29848 0.0961,-0.44709 0.0349,-0.1515 0.0701,-0.30293 0.1049,-0.45445 0.0384,-0.16488 0.0761,-0.32989 0.11527,-0.49457 0.0399,-0.16441 0.0806,-0.32865 0.12288,-0.49248 0.0449,-0.1744 0.0898,-0.34876 0.13529,-0.52299 0.0474,-0.17966 0.0943,-0.35946 0.14553,-0.53807 0.0511,-0.17628 0.10279,-0.3524 0.1552,-0.52829 0.0549,-0.18252 0.11001,-0.36502 0.16634,-0.54713 0.0556,-0.17576 0.11272,-0.35105 0.17351,-0.52511 0.0608,-0.1766 0.12202,-0.35304 0.18399,-0.52922 0.0612,-0.17137 0.12228,-0.34277 0.18801,-0.51243 0.0661,-0.17 0.13233,-0.3399 0.1991,-0.50961 0.0691,-0.17438 0.13722,-0.34918 0.20829,-0.5228 0.0665,-0.16059 0.13459,-0.32055 0.20683,-0.47871 0.0699,-0.15294 0.13963,-0.30596 0.2106,-0.45845 0.0705,-0.15095 0.14009,-0.30234 0.21336,-0.452 0.0657,-0.13145 0.13152,-0.26276 0.20287,-0.39121 0.0662,-0.11907 0.1315,-0.23868 0.19701,-0.35811 0.0469,-0.0843 0.0934,-0.16885 0.14557,-0.25008 0.0252,-0.0373 0.05,-0.0727 0.0608,-0.11747 l -2.84696,-2.02692 z"
       id="path3617"
       style="display:inline;overflow:visible;visibility:visible;opacity:1;fill:#eec73e;fill-opacity:1;fill-rule:nonzero;stroke:none;stroke-width:1.5;stroke-linecap:butt;stroke-linejoin:miter;stroke-miterlimit:4;stroke-dasharray:none;stroke-dashoffset:0;stroke-opacity:1;marker:none;marker-start:none;marker-mid:none;marker-end:none;enable-background:accumulate"
       inkscape:connector-curvature="0" />
    <g
       id="g3623"
       transform="matrix(-2.9770152,0,0,2.9770152,720.52308,-1060.5801)"
       style="fill:#eec73e">
      <path
         d="m 169.84006,547.98331 c 4.7e-4,0.0462 -0.0106,0.0911 -0.0204,0.13584 -0.008,0.034 -0.0148,0.0682 -0.0219,0.10235 -0.009,0.0439 -0.0205,0.0873 -0.0312,0.13089 -0.0125,0.048 -0.0234,0.0964 -0.0338,0.14492 -0.0104,0.0483 -0.0204,0.0968 -0.0301,0.14525 -0.009,0.0464 -0.0187,0.0929 -0.0274,0.13944 -0.01,0.0516 -0.0187,0.10327 -0.0272,0.15504 -0.009,0.0528 -0.0176,0.10543 -0.0264,0.15814 -0.0103,0.0587 -0.0209,0.1174 -0.0307,0.1762 -0.0104,0.0604 -0.0199,0.12103 -0.0291,0.18165 -0.01,0.062 -0.0196,0.12406 -0.0291,0.18612 -0.0101,0.0654 -0.0203,0.13075 -0.0302,0.19616 -0.0104,0.0685 -0.0208,0.13699 -0.0312,0.20549 -0.0105,0.0688 -0.0207,0.13768 -0.0307,0.20658 -0.0109,0.0724 -0.0216,0.1449 -0.0323,0.21736 -0.0107,0.0715 -0.0209,0.14309 -0.0314,0.21464 -0.0103,0.071 -0.0207,0.14201 -0.0312,0.213 -0.0106,0.0703 -0.0206,0.14062 -0.0306,0.21097 -0.01,0.0686 -0.0199,0.13724 -0.03,0.20585 -0.01,0.0669 -0.0191,0.13383 -0.0287,0.20073 -0.009,0.0656 -0.019,0.13115 -0.0285,0.19672 -0.009,0.0657 -0.019,0.13145 -0.0279,0.19725 -0.009,0.0661 -0.0183,0.13218 -0.0273,0.19829 -0.009,0.0666 -0.0183,0.13337 -0.0274,0.20006 -0.009,0.0664 -0.018,0.13291 -0.0269,0.19939 -0.009,0.0658 -0.0176,0.13146 -0.0264,0.19719 -0.009,0.065 -0.017,0.13007 -0.0255,0.19511 -0.008,0.0618 -0.0159,0.1236 -0.0238,0.18541 -0.008,0.0603 -0.0149,0.12062 -0.0219,0.181 -0.007,0.0581 -0.0135,0.1162 -0.0202,0.17431 -0.006,0.0555 -0.0123,0.11101 -0.018,0.16657 -0.006,0.0562 -0.0114,0.11251 -0.0162,0.16886 -0.004,0.0539 -0.009,0.10784 -0.0119,0.16183 -0.003,0.0535 -0.006,0.10712 -0.008,0.16072 -0.002,0.0529 -0.004,0.10575 -0.004,0.15864 -8.9e-4,0.051 -10e-4,0.10192 -5.1e-4,0.15287 4.7e-4,0.0566 0.003,0.11325 0.005,0.16984 0.002,0.0543 0.004,0.10861 0.007,0.16289 0.002,0.0488 0.005,0.0977 0.008,0.14645 0.002,0.0401 0.006,0.0801 0.0109,0.12006 0.003,0.0202 0.005,0.0405 0.008,0.0607 l -1.16345,0.14372 c -0.003,-0.0274 -0.007,-0.0548 -0.009,-0.0822 -0.006,-0.0587 -0.0106,-0.11758 -0.0138,-0.17653 -0.003,-0.0554 -0.005,-0.11091 -0.007,-0.1664 -0.002,-0.0575 -0.003,-0.11499 -0.004,-0.17249 -0.001,-0.0623 -0.003,-0.12453 -0.005,-0.1868 -10e-4,-0.0649 -0.002,-0.12985 -10e-4,-0.19479 10e-4,-0.0615 0.003,-0.12295 0.006,-0.1844 0.003,-0.0621 0.006,-0.12418 0.01,-0.18621 0.004,-0.0629 0.009,-0.12582 0.0147,-0.18863 0.006,-0.0621 0.0115,-0.12411 0.0172,-0.18617 0.006,-0.061 0.0128,-0.12203 0.0202,-0.18293 0.007,-0.0605 0.0145,-0.12092 0.0222,-0.18132 0.008,-0.0627 0.016,-0.12543 0.0241,-0.18814 0.008,-0.0639 0.0169,-0.12777 0.026,-0.19157 0.009,-0.0653 0.0183,-0.13058 0.0267,-0.19596 0.009,-0.0659 0.0178,-0.13175 0.0269,-0.1976 0.009,-0.0668 0.0183,-0.13369 0.0273,-0.20055 0.009,-0.0667 0.018,-0.13337 0.0273,-0.20002 0.009,-0.0671 0.0186,-0.13418 0.0277,-0.2013 0.01,-0.0676 0.019,-0.13529 0.0285,-0.20294 0.01,-0.0665 0.0191,-0.13308 0.029,-0.19958 0.0102,-0.0673 0.0203,-0.13464 0.0302,-0.20199 0.0103,-0.0684 0.0205,-0.13689 0.031,-0.2053 0.0109,-0.0704 0.0209,-0.14101 0.0316,-0.21148 0.0106,-0.0707 0.0207,-0.14153 0.0311,-0.21228 0.0107,-0.0715 0.0217,-0.14299 0.0321,-0.21457 0.0105,-0.0708 0.0206,-0.14178 0.0307,-0.21272 0.0102,-0.0713 0.0202,-0.14263 0.0304,-0.21393 0.0101,-0.0679 0.0201,-0.13577 0.0298,-0.2037 0.01,-0.0662 0.0187,-0.13251 0.0281,-0.19875 0.009,-0.0636 0.0186,-0.12713 0.0286,-0.19059 0.01,-0.0632 0.0199,-0.12644 0.0297,-0.18968 0.009,-0.0589 0.0181,-0.11778 0.0267,-0.17674 0.009,-0.0557 0.0174,-0.11142 0.027,-0.167 0.01,-0.0559 0.0192,-0.11185 0.0284,-0.16783 0.01,-0.0557 0.0196,-0.11135 0.0311,-0.16672 0.011,-0.0525 0.022,-0.10509 0.0333,-0.15757 0.011,-0.0504 0.0213,-0.1009 0.0307,-0.15157 0.007,-0.0367 0.0132,-0.0735 0.02,-0.11027 0.007,-0.0348 0.014,-0.0696 0.0202,-0.10454 0.003,-0.0178 0.004,-0.0366 0.0132,-0.0525 l 1.166,0.1518 z"
         id="path3619"
         style="display:inline;overflow:visible;visibility:visible;opacity:1;fill:#eec73e;fill-opacity:1;fill-rule:nonzero;stroke:none;stroke-width:1.5;stroke-linecap:butt;stroke-linejoin:miter;stroke-miterlimit:4;stroke-dasharray:none;stroke-dashoffset:0;stroke-opacity:1;marker:none;marker-start:none;marker-mid:none;marker-end:none;enable-background:accumulate"
         inkscape:connector-curvature="0" />
      <path
         d="m 167.35361,552.80267 c 0.0231,0.0336 0.0369,0.0721 0.0516,0.10977 0.0144,0.0384 0.0283,0.0769 0.0426,0.11529 0.0147,0.0406 0.0295,0.0812 0.0444,0.1217 0.017,0.0465 0.0337,0.0931 0.0506,0.13973 0.0182,0.0517 0.0367,0.10335 0.0554,0.15488 0.0192,0.0526 0.0381,0.10533 0.0571,0.15803 0.02,0.0563 0.0396,0.11286 0.0599,0.16912 0.0196,0.0544 0.0388,0.10899 0.0584,0.1634 0.0196,0.0544 0.0382,0.10925 0.0568,0.16402 0.0189,0.0563 0.0372,0.11281 0.056,0.16917 0.0182,0.0556 0.0363,0.11118 0.0539,0.16694 0.0186,0.0589 0.0356,0.11829 0.0524,0.1777 0.0171,0.0618 0.0338,0.12364 0.0503,0.18557 0.0154,0.057 0.0305,0.11401 0.0455,0.17109 0.0163,0.0624 0.031,0.12524 0.0456,0.18807 0.0138,0.0599 0.0273,0.11998 0.0411,0.17995 0.013,0.0568 0.0257,0.11368 0.0388,0.17047 0.0129,0.0572 0.0259,0.11446 0.0384,0.17178 0.0124,0.0578 0.0242,0.11569 0.0358,0.17364 0.0106,0.0544 0.0217,0.10864 0.0328,0.16293 0.01,0.0503 0.0201,0.10049 0.0302,0.15072 0.0105,0.0498 0.0195,0.0999 0.0283,0.15005 0.009,0.0544 0.0177,0.10892 0.0267,0.16336 0.008,0.0471 0.0156,0.0941 0.0234,0.14114 0.007,0.0433 0.0144,0.0866 0.0216,0.12989 0.007,0.0399 0.0133,0.0799 0.0199,0.1198 0.006,0.0368 0.0122,0.0737 0.0184,0.11049 0.005,0.0303 0.0108,0.0606 0.0166,0.0908 0.005,0.0269 0.0103,0.0538 0.0153,0.0808 0.004,0.0196 0.007,0.0321 0.003,0.005 -0.0148,-0.0675 -0.0524,-0.12586 -0.0925,-0.1809 -0.21601,-0.2838 -0.71075,-0.25062 -0.92042,0.0252 -0.009,0.0157 -0.0194,0.0312 -0.0271,0.0478 0.003,-0.008 0.006,-0.0156 0.009,-0.0235 0.008,-0.0221 0.0141,-0.0448 0.0205,-0.0673 0.01,-0.0352 0.0184,-0.0707 0.0276,-0.10599 0.0115,-0.0441 0.024,-0.0879 0.0378,-0.1313 0.0156,-0.0485 0.0319,-0.0969 0.0485,-0.14506 0.0162,-0.0482 0.0322,-0.0965 0.0492,-0.14451 0.0201,-0.0575 0.0427,-0.11401 0.0662,-0.17014 0.0222,-0.0526 0.0448,-0.10509 0.0669,-0.15774 0.0195,-0.0467 0.0388,-0.0934 0.0583,-0.14011 0.0204,-0.0487 0.0402,-0.0977 0.06,-0.14661 0.0223,-0.0554 0.0436,-0.11133 0.0651,-0.16709 0.022,-0.0575 0.0443,-0.11485 0.0669,-0.1721 0.0238,-0.0602 0.0481,-0.12016 0.0727,-0.18002 0.024,-0.0584 0.048,-0.11676 0.0721,-0.17509 0.024,-0.0579 0.0484,-0.11569 0.0731,-0.17328 0.0267,-0.0613 0.054,-0.12234 0.0819,-0.18312 0.0269,-0.0583 0.0541,-0.11643 0.0818,-0.17434 0.0282,-0.0586 0.0575,-0.11671 0.0871,-0.17465 0.0291,-0.057 0.0588,-0.11367 0.0888,-0.17022 0.0291,-0.0548 0.0586,-0.10936 0.0886,-0.1637 0.029,-0.0533 0.0591,-0.10605 0.0893,-0.15868 0.029,-0.05 0.0579,-0.10007 0.0866,-0.15022 0.0289,-0.0508 0.0588,-0.101 0.0897,-0.15059 0.0345,-0.0555 0.0708,-0.10976 0.10755,-0.16375 0.0332,-0.0487 0.0662,-0.0975 0.0993,-0.1463 0.0312,-0.0455 0.0621,-0.0912 0.0937,-0.13631 0.0322,-0.0456 0.0648,-0.0909 0.0972,-0.13629 0.0295,-0.0413 0.059,-0.0825 0.0884,-0.12381 0.0269,-0.0377 0.0538,-0.0753 0.0806,-0.11294 0.0248,-0.0347 0.0496,-0.0694 0.0743,-0.10414 0.0236,-0.033 0.047,-0.0661 0.0709,-0.0989 0.0275,-0.0384 0.0569,-0.0754 0.0868,-0.11197 0.0259,-0.0317 0.0517,-0.0634 0.0775,-0.0952 0.0229,-0.0283 0.0459,-0.0566 0.0688,-0.0848 0.0121,-0.0147 0.0239,-0.0296 0.0357,-0.0445 l 0.92537,0.73556 c -0.0166,0.0206 -0.0333,0.0411 -0.0506,0.0612 -0.0234,0.0277 -0.0467,0.0555 -0.0701,0.0832 -0.0239,0.0284 -0.0478,0.0567 -0.0709,0.0857 -0.0184,0.0232 -0.0364,0.0467 -0.0539,0.0706 -0.0229,0.0305 -0.0456,0.0613 -0.0684,0.0919 -0.0254,0.0342 -0.0509,0.0685 -0.0763,0.10271 -0.0276,0.0371 -0.0551,0.0742 -0.0827,0.11133 -0.0295,0.0397 -0.059,0.0794 -0.0884,0.1192 -0.0295,0.0402 -0.0587,0.0807 -0.0874,0.12149 -0.03,0.0429 -0.06,0.0857 -0.0904,0.12834 -0.0318,0.0452 -0.0638,0.0904 -0.0945,0.13631 -0.0268,0.0401 -0.0528,0.0806 -0.0777,0.12192 -0.0258,0.0429 -0.0518,0.0857 -0.0771,0.12895 -0.0281,0.0472 -0.0562,0.0944 -0.0837,0.14201 -0.0271,0.0471 -0.054,0.0942 -0.0804,0.14159 -0.027,0.0486 -0.054,0.0971 -0.0805,0.146 -0.0268,0.0502 -0.0535,0.10049 -0.0795,0.15114 -0.0253,0.0501 -0.0506,0.10027 -0.075,0.1509 -0.025,0.0519 -0.05,0.10393 -0.0741,0.15627 -0.0235,0.0511 -0.0468,0.10237 -0.0688,0.15416 -0.023,0.0544 -0.0459,0.10875 -0.0689,0.16312 -0.0233,0.0558 -0.0469,0.11144 -0.0699,0.16734 -0.022,0.0547 -0.0439,0.10946 -0.0652,0.16443 -0.0214,0.0555 -0.043,0.11086 -0.0645,0.16632 -0.0217,0.0568 -0.0438,0.11346 -0.0651,0.17041 -0.0209,0.0562 -0.0421,0.11217 -0.0645,0.16775 -0.0207,0.0519 -0.0424,0.10338 -0.0645,0.15468 -0.02,0.0469 -0.0406,0.0937 -0.0594,0.14112 -0.0146,0.038 -0.029,0.0761 -0.0421,0.11465 -0.0145,0.043 -0.0292,0.0858 -0.0431,0.129 -0.0117,0.0371 -0.0229,0.0744 -0.0332,0.11191 -0.008,0.0305 -0.0161,0.0609 -0.0238,0.0915 -0.009,0.035 -0.0178,0.07 -0.026,0.1051 -0.009,0.0386 -0.0177,0.0773 -0.0283,0.11553 -0.0108,0.039 -0.0231,0.0777 -0.0376,0.11553 -0.0207,0.0556 -0.0452,0.10987 -0.0774,0.15988 -0.23718,0.32513 -0.7351,0.42866 -1.0098,0.0932 -0.0561,-0.0756 -0.10396,-0.15652 -0.12645,-0.24888 -0.0109,-0.0432 -0.0199,-0.0867 -0.0262,-0.13087 -0.005,-0.0294 -0.01,-0.0588 -0.0142,-0.0883 -0.005,-0.0352 -0.0104,-0.0703 -0.0154,-0.10554 -0.005,-0.0369 -0.0109,-0.0739 -0.0163,-0.11082 -0.006,-0.0401 -0.0118,-0.0801 -0.0177,-0.12016 -0.006,-0.0434 -0.0128,-0.0868 -0.0191,-0.13026 -0.007,-0.0469 -0.0138,-0.0939 -0.0207,-0.14078 -0.007,-0.0453 -0.0135,-0.0907 -0.0218,-0.13577 -0.009,-0.0464 -0.0182,-0.0927 -0.0268,-0.13913 -0.009,-0.0496 -0.018,-0.0993 -0.0273,-0.14889 -0.01,-0.0526 -0.0193,-0.10519 -0.0296,-0.15765 -0.0103,-0.0518 -0.0207,-0.10361 -0.0318,-0.15525 -0.0114,-0.0538 -0.0228,-0.1076 -0.0348,-0.16126 -0.0126,-0.057 -0.0255,-0.114 -0.0381,-0.17104 -0.0126,-0.0568 -0.0246,-0.11364 -0.038,-0.17022 -0.0125,-0.0531 -0.0257,-0.106 -0.0397,-0.15872 -0.0147,-0.0564 -0.0295,-0.11284 -0.0444,-0.16923 -0.0139,-0.0532 -0.0278,-0.10642 -0.0435,-0.15915 -0.0149,-0.0507 -0.0305,-0.10116 -0.0466,-0.15147 -0.016,-0.0513 -0.0324,-0.1024 -0.049,-0.15349 -0.0166,-0.0515 -0.0336,-0.10295 -0.0512,-0.15415 -0.0176,-0.0512 -0.0354,-0.10226 -0.0531,-0.15336 -0.0186,-0.0537 -0.037,-0.10739 -0.0558,-0.16098 -0.0189,-0.0537 -0.0381,-0.10722 -0.0582,-0.16047 -0.0193,-0.0521 -0.0387,-0.10407 -0.058,-0.15613 -0.0182,-0.0492 -0.0362,-0.0985 -0.0554,-0.14734 -0.017,-0.0439 -0.0346,-0.0876 -0.052,-0.13136 -0.0154,-0.0392 -0.031,-0.0784 -0.0468,-0.11747 -0.0122,-0.0307 -0.0247,-0.0613 -0.038,-0.0915 -0.01,-0.023 -0.0215,-0.0459 -0.0252,-0.071 l 1.06905,-0.48424 z"
         id="path3621"
         style="display:inline;overflow:visible;visibility:visible;opacity:1;fill:#eec73e;fill-opacity:1;fill-rule:nonzero;stroke:none;stroke-width:1.5;stroke-linecap:butt;stroke-linejoin:miter;stroke-miterlimit:4;stroke-dasharray:none;stroke-dashoffset:0;stroke-opacity:1;marker:none;marker-start:none;marker-mid:none;marker-end:none;enable-background:accumulate"
         inkscape:connector-curvature="0" />
    </g>
    <text
       xml:space="preserve"
       style="font-style:normal;font-variant:normal;font-weight:normal;font-stretch:normal;font-size:16.21697426px;line-height:125%;font-family:'Komika Text';-inkscape-font-specification:'Komika Text';text-indent:0;text-align:start;text-decoration:none;text-decoration-line:none;letter-spacing:normal;word-spacing:normal;text-transform:none;direction:ltr;block-progression:tb;writing-mode:lr-tb;text-anchor:start;display:inline;overflow:visible;visibility:visible;opacity:1;fill:#0197fd;fill-opacity:1;fill-rule:nonzero;stroke:none;stroke-width:1.5;stroke-linecap:butt;stroke-linejoin:miter;stroke-miterlimit:4;stroke-dasharray:none;stroke-dashoffset:0;stroke-opacity:1;marker:none;marker-start:none;marker-mid:none;marker-end:none;enable-background:accumulate"
       x="151.23547"
       y="742.60352"
       id="text3627"
       sodipodi:linespacing="125%"><tspan
         sodipodi:role="line"
         id="tspan3629"
         x="151.23547"
         y="742.60352">2的倍数</tspan></text>
    <text
       xml:space="preserve"
       style="font-style:normal;font-variant:normal;font-weight:normal;font-stretch:normal;font-size:16.21697426px;line-height:125%;font-family:'Komika Text';-inkscape-font-specification:'Komika Text';text-indent:0;text-align:start;text-decoration:none;text-decoration-line:none;letter-spacing:normal;word-spacing:normal;text-transform:none;direction:ltr;block-progression:tb;writing-mode:lr-tb;text-anchor:start;display:inline;overflow:visible;visibility:visible;fill:#0197fd;fill-opacity:1;fill-rule:nonzero;stroke:none;stroke-width:1.5;marker:none;enable-background:accumulate"
       x="282.22626"
       y="742.60352"
       id="text3631"
       sodipodi:linespacing="125%"><tspan
         sodipodi:role="line"
         id="tspan3633"
         x="282.22626"
         y="742.60352">例</tspan></text>
    <path
       style="display:inline;overflow:visible;visibility:visible;fill:#fdca01;fill-opacity:1;fill-rule:nonzero;stroke:none;stroke-width:1.5;marker:none;enable-background:accumulate"
       id="path3643"
       d="m 271.49304,762.49186 c 0.2524,0.11139 0.47452,0.27688 0.69349,0.44214 0.17192,0.13413 0.33825,0.27513 0.5062,0.41411 0.18135,0.14953 0.35502,0.30788 0.52751,0.46743 0.19058,0.17922 0.37576,0.364 0.56189,0.54778 0.16559,0.16206 0.33147,0.32382 0.49545,0.48751 0.18645,0.18706 0.36533,0.38131 0.54361,0.5761 0.17047,0.18863 0.33855,0.37938 0.50841,0.56857 0.17772,0.19801 0.35047,0.40034 0.5215,0.60414 0.19198,0.2328 0.376,0.47195 0.55857,0.71214 0.16029,0.21058 0.31991,0.42165 0.47825,0.63369 0.17686,0.23975 0.34296,0.48702 0.50718,0.73549 0.15393,0.23561 0.30407,0.47368 0.4552,0.7111 0.15363,0.23979 0.29895,0.48463 0.44138,0.73121 0.14748,0.26184 0.28632,0.52839 0.42719,0.79381 0.12297,0.23021 0.24502,0.46089 0.36555,0.69238 0.14465,0.28035 0.27315,0.56838 0.39878,0.85759 0.11467,0.26879 0.22719,0.53849 0.3405,0.80785 0.0991,0.23544 0.19816,0.47088 0.29725,0.70632 0.0893,0.21314 0.17926,0.42598 0.27021,0.63841 0.0579,0.14296 0.12863,0.27974 0.19976,0.41634 0.0483,0.0854 0.1,0.16872 0.1497,0.25329 0.008,0.0289 0.0632,0.0862 0.0657,0.0894 -0.0617,-0.10709 -0.14883,-0.19557 -0.23668,-0.28143 -0.35591,-0.34345 -0.81237,-0.48732 -1.28519,-0.58793 -1.20541,0.30822 -2.34745,0.41612 -2.68999,1.63731 -0.0183,0.0905 0.0233,-0.14124 0.0262,-0.16013 0.022,-0.13464 0.0426,-0.2695 0.0629,-0.40441 0.0279,-0.18541 0.0521,-0.37132 0.0751,-0.55738 0.0223,-0.1905 0.044,-0.38106 0.0656,-0.57165 0.0241,-0.20639 0.0541,-0.41203 0.0818,-0.61796 0.0356,-0.25083 0.0655,-0.50239 0.0963,-0.75383 0.0304,-0.24378 0.0594,-0.48771 0.0933,-0.73103 0.0378,-0.28572 0.0919,-0.56883 0.14668,-0.85168 0.0563,-0.28588 0.11597,-0.57107 0.17282,-0.85684 0.0583,-0.30731 0.12823,-0.61208 0.20339,-0.91564 0.0876,-0.35 0.19058,-0.69586 0.29181,-1.04209 0.0999,-0.33974 0.20006,-0.67939 0.30003,-1.01911 0.0949,-0.32913 0.19641,-0.65626 0.29725,-0.98359 0.10721,-0.34438 0.21388,-0.68894 0.3203,-1.03359 0.1125,-0.36124 0.23442,-0.71941 0.35849,-1.07681 0.12869,-0.36706 0.26197,-0.73248 0.39524,-1.09789 0.12444,-0.34764 0.25131,-0.69439 0.37891,-1.04089 0.13507,-0.36413 0.27976,-0.72456 0.42481,-1.08481 0.13699,-0.34185 0.27501,-0.6833 0.41654,-1.0233 0.15117,-0.37037 0.32003,-0.73297 0.49633,-1.09192 0.18686,-0.37491 0.38837,-0.74235 0.59192,-1.1084 0.18281,-0.32931 0.36795,-0.65733 0.55262,-0.98561 0.18268,-0.33231 0.37658,-0.65806 0.57615,-0.98044 0.20194,-0.32224 0.41044,-0.64031 0.61709,-0.95954 0.18302,-0.28319 0.36572,-0.5666 0.54846,-0.84998 0.1981,-0.30791 0.41038,-0.6062 0.62596,-0.90201 0.21814,-0.2954 0.43969,-0.58824 0.6601,-0.88195 0.1985,-0.26564 0.39801,-0.53051 0.59844,-0.79471 0.20701,-0.27063 0.41964,-0.53691 0.63292,-0.80262 0.19908,-0.24792 0.39805,-0.49594 0.59702,-0.74395 0.18545,-0.23312 0.37323,-0.46433 0.56205,-0.69471 0.19088,-0.2297 0.38419,-0.45737 0.57711,-0.68535 0.17332,-0.20514 0.34639,-0.4105 0.51949,-0.61583 0.15939,-0.18908 0.31877,-0.37815 0.47815,-0.56722 0.147,-0.17438 0.294,-0.34876 0.441,-0.52315 0.0916,-0.10865 0.0471,-0.0551 0.13349,-0.1606 l 3.96628,3.37709 c -0.0965,0.10936 -0.0486,0.0546 -0.14376,0.16438 -0.14935,0.17237 -0.29869,0.34475 -0.44804,0.51713 -0.1619,0.18687 -0.32382,0.37375 -0.48572,0.56063 -0.1749,0.20191 -0.34987,0.40376 -0.52438,0.60599 -0.17528,0.20373 -0.35038,0.40762 -0.52248,0.61405 -0.18304,0.22123 -0.3661,0.44243 -0.5476,0.66493 -0.19519,0.23679 -0.39066,0.47333 -0.5841,0.71153 -0.18882,0.23535 -0.37512,0.47274 -0.55931,0.71173 -0.19799,0.25599 -0.39497,0.51274 -0.59248,0.76911 -0.19675,0.25655 -0.39312,0.51348 -0.58109,0.77658 -0.16779,0.23747 -0.33112,0.47804 -0.49274,0.71974 -0.18625,0.28044 -0.37254,0.56085 -0.5584,0.84155 -0.18361,0.27788 -0.36816,0.55522 -0.54257,0.83903 -0.16838,0.27588 -0.33079,0.55531 -0.49064,0.83622 -0.17833,0.30748 -0.35738,0.61457 -0.53111,0.92468 -0.15823,0.28596 -0.31508,0.57284 -0.4571,0.86732 -0.13228,0.27579 -0.25776,0.55481 -0.37506,0.83733 -0.13443,0.31633 -0.26542,0.63411 -0.39531,0.95233 -0.12702,0.31417 -0.25219,0.62907 -0.36927,0.9471 -0.12596,0.33852 -0.25256,0.6768 -0.37722,1.01578 -0.12171,0.33346 -0.24251,0.66726 -0.35551,1.0038 -0.10607,0.31452 -0.2097,0.62986 -0.30959,0.9464 -0.1038,0.32819 -0.20588,0.65695 -0.30436,0.98678 -0.0955,0.32257 -0.18991,0.64547 -0.2877,0.96737 -0.0962,0.31865 -0.19427,0.63677 -0.28382,0.95738 -0.0763,0.27587 -0.15008,0.55245 -0.21248,0.83185 -0.0556,0.24646 -0.10693,0.49385 -0.15582,0.74174 -0.0521,0.25446 -0.10432,0.50892 -0.14992,0.76463 -0.0356,0.20861 -0.0678,0.41774 -0.0943,0.62771 -0.0303,0.22467 -0.0608,0.44933 -0.0914,0.67397 -0.0305,0.23281 -0.0581,0.46601 -0.0822,0.69956 -0.0205,0.20966 -0.0393,0.41948 -0.0635,0.62874 -0.0238,0.1965 -0.0481,0.39292 -0.0723,0.58938 -0.0235,0.19889 -0.0474,0.39773 -0.0681,0.59694 -0.0196,0.18044 -0.0376,0.36111 -0.0646,0.54065 -0.0328,0.21459 -0.0632,0.42992 -0.11373,0.64127 -0.41014,1.57363 -1.37556,1.88565 -3.06957,2.3305 -0.58378,-0.11899 -1.12981,-0.3117 -1.57108,-0.72833 -0.20934,-0.19657 -0.40275,-0.40862 -0.5621,-0.64844 -0.11179,-0.16735 -0.21705,-0.3389 -0.31333,-0.51571 -0.0996,-0.1837 -0.19828,-0.36812 -0.28563,-0.55808 -0.10323,-0.22582 -0.20361,-0.4529 -0.29539,-0.68368 -0.09,-0.22053 -0.17897,-0.44148 -0.26854,-0.66219 -0.0956,-0.23597 -0.19113,-0.47193 -0.28685,-0.70784 -0.0956,-0.23532 -0.1903,-0.47108 -0.29238,-0.7037 -0.0855,-0.19097 -0.17587,-0.37968 -0.2735,-0.56478 -0.11188,-0.21981 -0.22533,-0.43882 -0.33858,-0.65793 -0.10508,-0.20198 -0.21098,-0.4036 -0.3248,-0.60084 -0.11265,-0.19259 -0.22782,-0.3837 -0.34575,-0.57311 -0.12628,-0.20305 -0.25308,-0.40582 -0.38443,-0.60564 -0.11738,-0.17563 -0.23794,-0.34913 -0.36389,-0.51874 -0.14247,-0.19511 -0.28599,-0.38945 -0.43082,-0.58281 -0.12929,-0.17034 -0.26064,-0.33918 -0.39995,-0.50151 -0.14046,-0.16558 -0.28403,-0.32849 -0.42786,-0.49114 -0.15085,-0.16982 -0.30036,-0.34087 -0.4546,-0.50765 -0.13284,-0.14295 -0.26841,-0.28334 -0.40654,-0.42119 -0.15267,-0.15404 -0.30672,-0.30669 -0.46068,-0.4594 -0.13481,-0.13263 -0.26861,-0.2666 -0.41114,-0.39103 -0.11749,-0.10335 -0.23705,-0.2043 -0.35811,-0.30344 -0.11057,-0.0915 -0.21996,-0.18457 -0.33448,-0.2712 -0.0647,-0.0484 -0.13025,-0.0961 -0.18774,-0.15318 l 2.65206,-4.4555 z"
       inkscape:connector-curvature="0" />
    <text
       sodipodi:linespacing="125%"
       id="text3645"
       y="742.60352"
       x="249.93175"
       style="font-style:normal;font-variant:normal;font-weight:bold;font-stretch:normal;font-size:16.21697426px;line-height:125%;font-family:'Comic Sans MS';-inkscape-font-specification:'Comic Sans MS Bold';text-indent:0;text-align:start;text-decoration:none;text-decoration-line:none;letter-spacing:normal;word-spacing:normal;text-transform:none;direction:ltr;block-progression:tb;writing-mode:lr-tb;text-anchor:start;display:inline;overflow:visible;visibility:visible;fill:#0197fd;fill-opacity:1;fill-rule:nonzero;stroke:none;stroke-width:1.5;marker:none;enable-background:accumulate"
       xml:space="preserve"><tspan
         y="742.60352"
         x="249.93175"
         id="tspan3647"
         sodipodi:role="line">n=k</tspan></text>
    <path
       style="display:inline;overflow:visible;visibility:visible;fill:#0197fd;fill-opacity:1;fill-rule:nonzero;stroke:none;stroke-width:1.5;marker:none;enable-background:accumulate"
       id="path3593-1"
       d="m 154.53538,709.89168 c 0.0266,0.042 0.0296,0.0967 0.0386,0.14667 0.0163,0.0938 0.0328,0.18768 0.0502,0.28126 0.0133,0.0794 0.0297,0.15801 0.0482,0.23595 0.0275,0.11932 0.062,0.23634 0.0969,0.35291 0.0395,0.13342 0.083,0.26513 0.12925,0.39553 0.0472,0.13231 0.0995,0.26207 0.15311,0.39095 0.059,0.14363 0.12365,0.28402 0.19107,0.42247 0.0581,0.11948 0.124,0.23328 0.19381,0.34377 0.0738,0.11695 0.15686,0.22508 0.24217,0.33052 0.101,0.12414 0.21246,0.23566 0.32549,0.34439 0.12926,0.12368 0.26656,0.23508 0.40555,0.34319 0.16716,0.12821 0.34,0.24595 0.51364,0.36179 0.18079,0.12069 0.3648,0.23464 0.5503,0.34506 0.18839,0.11253 0.38078,0.21545 0.57467,0.31427 0.1974,0.10186 0.39916,0.19142 0.6022,0.27649 0.22108,0.091 0.44444,0.17422 0.66811,0.25606 0.22919,0.0839 0.45949,0.16362 0.69036,0.24116 0.22875,0.0772 0.45945,0.14608 0.69061,0.21251 0.23885,0.0686 0.47841,0.13372 0.71825,0.19749 0.23375,0.0633 0.46828,0.12249 0.70364,0.17719 0.24062,0.056 0.48273,0.1028 0.72485,0.14868 0.24283,0.0461 0.48583,0.0905 0.72929,0.13158 0.2344,0.0402 0.46986,0.0713 0.70553,0.0991 0.24609,0.029 0.49253,0.0542 0.73912,0.0772 0.24362,0.0238 0.48758,0.0426 0.73166,0.0584 0.24851,0.0162 0.49728,0.0257 0.74602,0.0355 0.24682,0.0101 0.49369,0.019 0.74059,0.0262 0.2431,0.008 0.48628,0.0117 0.72946,0.0142 0.24325,0.003 0.48651,0.004 0.72974,0.005 0.23627,0.002 0.47252,2.8e-4 0.70876,-0.003 0.23606,-0.004 0.47209,-0.01 0.70805,-0.0181 0.23581,-0.009 0.47161,-0.0189 0.7073,-0.0317 0.23234,-0.0128 0.46466,-0.0248 0.69708,-0.0366 0.23292,-0.0111 0.46586,-0.0209 0.69884,-0.0311 0.23378,-0.009 0.46747,-0.0201 0.70122,-0.0306 0.22843,-0.01 0.45694,-0.0179 0.68548,-0.0248 0.22349,-0.007 0.44703,-0.01 0.67056,-0.01 0.22977,0.001 0.45941,0.0113 0.68883,0.0257 0.21961,0.0146 0.43874,0.0366 0.65755,0.0629 0.23298,0.0281 0.46381,0.0742 0.69369,0.12586 0.21535,0.051 0.42857,0.11335 0.64099,0.17879 0.20178,0.061 0.40118,0.13162 0.59923,0.2073 0.20952,0.0815 0.4137,0.17961 0.61568,0.28355 0.18166,0.0955 0.35925,0.20084 0.53589,0.30836 0.17629,0.10845 0.34686,0.22873 0.51534,0.3528 0.14836,0.11003 0.29328,0.22623 0.43775,0.34311 0.13531,0.10962 0.26792,0.22372 0.3995,0.33941 0.13119,0.11636 0.25851,0.23837 0.38441,0.3624 0.1139,0.11296 0.22559,0.22892 0.33596,0.34649 0.12112,0.12883 0.23491,0.26641 0.34622,0.40658 0.10701,0.13555 0.20795,0.27737 0.30624,0.42162 0.10132,0.15069 0.19426,0.30864 0.28362,0.46922 0.0874,0.15664 0.16422,0.32052 0.23871,0.48576 0.0685,0.15522 0.12882,0.31492 0.18742,0.47543 0.0492,0.13722 0.0961,0.27553 0.14099,0.41473 0.0543,0.16741 0.0979,0.33891 0.13739,0.51175 0.0321,0.14651 0.0601,0.29417 0.0875,0.44195 0.0211,0.11791 0.0416,0.23598 0.0619,0.35408 0.0205,0.12406 0.0394,0.24843 0.0573,0.37304 0.0146,0.10303 0.0293,0.20607 0.0439,0.30911 0.0147,0.10029 0.0282,0.2008 0.0412,0.30141 0.0111,0.0919 0.0227,0.18373 0.0341,0.27554 0.0102,0.0817 0.0205,0.16335 0.0306,0.245 0.0103,0.0819 0.0208,0.16367 0.0301,0.24569 0.009,0.0781 0.0164,0.15636 0.0243,0.2346 0.009,0.0938 0.0153,0.18784 0.0211,0.28197 0.004,0.0656 0.008,0.13124 0.0121,0.19685 0.003,0.0585 0.007,0.11699 0.0107,0.17549 0.003,0.0557 0.006,0.11143 0.01,0.16714 0.003,0.0512 0.006,0.10252 0.009,0.15378 0.003,0.056 0.007,0.11204 0.009,0.16813 0.002,0.0538 0.003,0.10766 0.005,0.16148 0.002,0.042 0.003,0.084 0.004,0.12591 0.002,0.0386 0.003,0.0771 0.004,0.1157 8.5e-4,0.0356 0.003,0.0711 0.003,0.10672 8.6e-4,0.0328 0.003,0.0656 0.003,0.0984 0.003,0.0639 0.003,0.12789 0.002,0.19189 l -3.05163,-0.0895 c 7.1e-4,0.17024 -1e-5,0.0455 -0.002,0.006 -5.8e-4,-0.0328 -8.5e-4,-0.0656 -0.002,-0.0985 -6.4e-4,-0.0356 -8.6e-4,-0.0712 -0.002,-0.10675 -7.1e-4,-0.0386 -0.002,-0.0772 -0.002,-0.11573 -7.4e-4,-0.0417 -0.002,-0.0834 -0.003,-0.12505 -6.8e-4,-0.0366 -0.002,-0.0731 -0.003,-0.10964 -8.5e-4,-0.0279 -0.003,-0.0795 -0.005,-0.11631 -0.003,-0.0512 -0.004,-0.10238 -0.007,-0.15355 -0.003,-0.0538 -0.005,-0.10757 -0.008,-0.16136 -0.003,-0.0585 -0.005,-0.117 -0.008,-0.1755 -0.003,-0.0612 -0.005,-0.12238 -0.009,-0.18356 -0.002,-0.0414 -0.004,-0.0827 -0.008,-0.12392 -0.005,-0.0619 -0.0113,-0.12383 -0.0167,-0.18579 -0.007,-0.0689 -0.0145,-0.1377 -0.022,-0.20655 -0.009,-0.0817 -0.0178,-0.16349 -0.0266,-0.24524 -0.009,-0.0847 -0.0183,-0.16948 -0.0282,-0.25412 -0.01,-0.0859 -0.021,-0.17165 -0.0317,-0.25745 -0.0122,-0.0974 -0.0244,-0.19479 -0.0369,-0.29212 -0.0115,-0.0883 -0.0245,-0.17627 -0.0383,-0.26412 -0.0165,-0.10322 -0.0331,-0.20644 -0.0502,-0.3095 -0.0143,-0.0862 -0.0297,-0.17219 -0.0471,-0.25762 -0.0139,-0.0619 -0.0287,-0.12362 -0.0477,-0.18376 -0.0297,-0.094 -0.0592,-0.1881 -0.0919,-0.28076 -0.0272,-0.0768 -0.0547,-0.15364 -0.0865,-0.22806 -0.0293,-0.0688 -0.0605,-0.13644 -0.0953,-0.20169 -0.0365,-0.068 -0.0742,-0.13494 -0.11591,-0.19866 -0.0496,-0.0754 -0.10124,-0.1491 -0.15518,-0.22038 -0.0567,-0.0729 -0.114,-0.14532 -0.17623,-0.212 -0.0802,-0.0886 -0.16165,-0.17561 -0.24483,-0.26042 -0.083,-0.0846 -0.16735,-0.16759 -0.25439,-0.24663 -0.0986,-0.0899 -0.19831,-0.1781 -0.30018,-0.26297 -0.10622,-0.0888 -0.21289,-0.1769 -0.32227,-0.26031 -0.10089,-0.0763 -0.20304,-0.15039 -0.3087,-0.21743 -0.11732,-0.0741 -0.2353,-0.14704 -0.35643,-0.21235 -0.11285,-0.0603 -0.22682,-0.11802 -0.34433,-0.16503 -0.14103,-0.0566 -0.28348,-0.10815 -0.42723,-0.15452 -0.14855,-0.0474 -0.29741,-0.094 -0.4482,-0.13086 -0.14491,-0.0347 -0.29068,-0.0642 -0.43774,-0.0834 -0.17133,-0.0225 -0.34294,-0.0421 -0.51502,-0.0555 -0.17778,-0.0132 -0.35576,-0.0235 -0.53391,-0.0262 -0.19999,-0.002 -0.40001,-0.002 -0.59998,0.002 -0.2158,0.003 -0.43157,0.008 -0.64732,0.0148 -0.22871,0.007 -0.45735,0.0163 -0.68594,0.0268 -0.2297,0.01 -0.45936,0.0209 -0.68903,0.0319 -0.23352,0.0104 -0.46701,0.0211 -0.70057,0.0308 -0.24648,0.01 -0.49294,0.0198 -0.73946,0.0283 -0.2524,0.008 -0.50478,0.0147 -0.75723,0.0194 -0.25192,0.003 -0.50386,0.005 -0.75579,0.003 -0.25036,-0.002 -0.50076,-0.004 -0.75116,-0.008 -0.25772,-0.004 -0.51554,-0.008 -0.77322,-0.0165 -0.25722,-0.009 -0.51442,-0.0181 -0.77157,-0.0301 -0.2653,-0.0129 -0.5306,-0.0258 -0.79577,-0.0417 -0.27005,-0.0174 -0.53998,-0.036 -0.80949,-0.0622 -0.26579,-0.0262 -0.53145,-0.0538 -0.79677,-0.0854 -0.2764,-0.0335 -0.55263,-0.0684 -0.82775,-0.11367 -0.26227,-0.0449 -0.52409,-0.0931 -0.78534,-0.1454 -0.27052,-0.0535 -0.54114,-0.10634 -0.81076,-0.16591 -0.26534,-0.0605 -0.53014,-0.12401 -0.79348,-0.19564 -0.25588,-0.0694 -0.51157,-0.13971 -0.76657,-0.21355 -0.26514,-0.0775 -0.5302,-0.15567 -0.79337,-0.24205 -0.2544,-0.0854 -0.50837,-0.17256 -0.76089,-0.26538 -0.25807,-0.0956 -0.51589,-0.19214 -0.77164,-0.29591 -0.26454,-0.10996 -0.5278,-0.22401 -0.78568,-0.35405 -0.24672,-0.12503 -0.49213,-0.25354 -0.73287,-0.39372 -0.22976,-0.13576 -0.45795,-0.27503 -0.6814,-0.42453 -0.22502,-0.15098 -0.44964,-0.30295 -0.66853,-0.46597 -0.2247,-0.17104 -0.44728,-0.34631 -0.65628,-0.54318 -0.20336,-0.19357 -0.40253,-0.39325 -0.58732,-0.61113 -0.17555,-0.21056 -0.34589,-0.42724 -0.49761,-0.6622 -0.13799,-0.21783 -0.27011,-0.44063 -0.38597,-0.67572 -0.0979,-0.19849 -0.19359,-0.39841 -0.28264,-0.60254 -0.0831,-0.19338 -0.16461,-0.38775 -0.23765,-0.58673 -0.0655,-0.18128 -0.12865,-0.3637 -0.1876,-0.54808 -0.0543,-0.1694 -0.10909,-0.33857 -0.15894,-0.50985 -0.0437,-0.15624 -0.086,-0.31299 -0.12014,-0.47251 -0.0216,-0.10196 -0.0428,-0.20401 -0.0646,-0.30589 -0.0261,-0.1292 -0.0525,-0.25935 -0.0539,-0.39289 l 2.95969,-0.52334 z"
       inkscape:connector-curvature="0" />
    <path
       d="m 208.15758,709.89168 c -0.0266,0.042 -0.0296,0.0967 -0.0386,0.14667 -0.0163,0.0938 -0.0328,0.18768 -0.0502,0.28126 -0.0133,0.0794 -0.0297,0.15801 -0.0482,0.23595 -0.0275,0.11932 -0.062,0.23634 -0.0969,0.35291 -0.0394,0.13342 -0.083,0.26513 -0.12925,0.39553 -0.0472,0.13231 -0.0995,0.26207 -0.15312,0.39095 -0.059,0.14363 -0.12364,0.28402 -0.19106,0.42247 -0.0581,0.11948 -0.12399,0.23328 -0.1938,0.34377 -0.0739,0.11695 -0.15686,0.22508 -0.24218,0.33052 -0.10101,0.12414 -0.21247,0.23566 -0.3255,0.34439 -0.12926,0.12368 -0.26655,0.23508 -0.40554,0.34319 -0.16716,0.12821 -0.34001,0.24595 -0.51364,0.36179 -0.1808,0.12069 -0.36478,0.23464 -0.55029,0.34506 -0.1884,0.11253 -0.3808,0.21545 -0.57467,0.31427 -0.19741,0.10186 -0.39916,0.19142 -0.6022,0.27649 -0.22109,0.091 -0.44446,0.17422 -0.6681,0.25606 -0.22921,0.0839 -0.45951,0.16362 -0.69038,0.24116 -0.22875,0.0772 -0.45945,0.14608 -0.69061,0.21251 -0.23885,0.0686 -0.47841,0.13372 -0.71824,0.19749 -0.23376,0.0633 -0.4683,0.12249 -0.70363,0.17719 -0.24063,0.056 -0.48273,0.1028 -0.72488,0.14868 -0.24282,0.0461 -0.48582,0.0905 -0.72927,0.13158 -0.23441,0.0402 -0.46987,0.0713 -0.70553,0.0991 -0.2461,0.029 -0.49253,0.0542 -0.73911,0.0772 -0.24364,0.0238 -0.4876,0.0426 -0.73167,0.0584 -0.24853,0.0162 -0.49729,0.0257 -0.74602,0.0355 -0.24684,0.0101 -0.4937,0.019 -0.74061,0.0262 -0.2431,0.008 -0.48629,0.0117 -0.72946,0.0142 -0.24323,0.003 -0.48649,0.004 -0.72973,0.005 -0.23628,0.002 -0.47253,2.8e-4 -0.70876,-0.003 -0.23606,-0.004 -0.47208,-0.01 -0.70806,-0.0181 -0.23581,-0.009 -0.47161,-0.0189 -0.7073,-0.0317 -0.23233,-0.0128 -0.46465,-0.0248 -0.69705,-0.0366 -0.23295,-0.0111 -0.46589,-0.0209 -0.69887,-0.0311 -0.23377,-0.009 -0.46747,-0.0201 -0.70119,-0.0306 -0.22845,-0.01 -0.45697,-0.0179 -0.68551,-0.0248 -0.22348,-0.007 -0.44701,-0.01 -0.67055,-0.01 -0.22978,0.001 -0.45942,0.0113 -0.68883,0.0257 -0.21959,0.0146 -0.43874,0.0366 -0.65753,0.0629 -0.23301,0.0281 -0.46381,0.0742 -0.69371,0.12586 -0.21536,0.051 -0.42855,0.11335 -0.64099,0.17879 -0.20178,0.061 -0.40119,0.13162 -0.59923,0.2073 -0.20952,0.0815 -0.41371,0.17961 -0.61569,0.28355 -0.18166,0.0955 -0.35925,0.20084 -0.53587,0.30836 -0.1763,0.10845 -0.34686,0.22873 -0.51534,0.3528 -0.14837,0.11003 -0.2933,0.22623 -0.43777,0.34311 -0.1353,0.10962 -0.26792,0.22372 -0.3995,0.33941 -0.13118,0.11636 -0.2585,0.23837 -0.38441,0.3624 -0.1139,0.11296 -0.22559,0.22892 -0.33595,0.34649 -0.1211,0.12883 -0.23492,0.26641 -0.34622,0.40658 -0.10701,0.13555 -0.20795,0.27737 -0.30623,0.42162 -0.10131,0.15069 -0.19425,0.30864 -0.28363,0.46922 -0.0874,0.15664 -0.16424,0.32052 -0.23871,0.48576 -0.0685,0.15522 -0.1288,0.31492 -0.18742,0.47543 -0.0492,0.13722 -0.0961,0.27553 -0.141,0.41473 -0.0542,0.16741 -0.0979,0.33891 -0.1374,0.51175 -0.032,0.14651 -0.0601,0.29417 -0.0875,0.44195 -0.0211,0.11791 -0.0416,0.23598 -0.0619,0.35408 -0.0205,0.12406 -0.0394,0.24843 -0.0573,0.37304 -0.0146,0.10303 -0.0293,0.20607 -0.0439,0.30911 -0.0147,0.10029 -0.0282,0.2008 -0.0411,0.30141 -0.0111,0.0919 -0.0227,0.18373 -0.0341,0.27554 -0.0102,0.0817 -0.0205,0.16335 -0.0306,0.245 -0.0103,0.0819 -0.0207,0.16367 -0.0301,0.24569 -0.009,0.0781 -0.0164,0.15636 -0.0244,0.2346 -0.009,0.0938 -0.0152,0.18784 -0.0211,0.28197 -0.004,0.0656 -0.008,0.13124 -0.0121,0.19685 -0.003,0.0585 -0.007,0.11699 -0.0107,0.17549 -0.003,0.0557 -0.006,0.11143 -0.01,0.16714 -0.003,0.0512 -0.006,0.10252 -0.009,0.15378 -0.003,0.056 -0.007,0.11204 -0.009,0.16813 -0.002,0.0538 -0.003,0.10766 -0.005,0.16148 -0.002,0.042 -0.003,0.084 -0.004,0.12591 -0.002,0.0386 -0.003,0.0771 -0.004,0.1157 -8.6e-4,0.0356 -0.003,0.0711 -0.003,0.10672 -8.5e-4,0.0328 -0.003,0.0656 -0.003,0.0984 -0.003,0.0639 -0.003,0.12789 -0.002,0.19189 l 3.05161,-0.0895 c -7.1e-4,0.17024 4e-5,0.0455 0.002,0.006 5.9e-4,-0.0328 8.6e-4,-0.0656 0.002,-0.0985 6.3e-4,-0.0356 8.5e-4,-0.0712 0.002,-0.10675 7e-4,-0.0386 0.002,-0.0772 0.002,-0.11573 7.4e-4,-0.0417 0.002,-0.0834 0.003,-0.12505 6.5e-4,-0.0366 0.002,-0.0731 0.003,-0.10964 8.6e-4,-0.0279 0.003,-0.0795 0.005,-0.11631 0.003,-0.0512 0.004,-0.10238 0.007,-0.15355 0.003,-0.0538 0.005,-0.10757 0.008,-0.16136 0.003,-0.0585 0.005,-0.117 0.008,-0.1755 0.003,-0.0612 0.005,-0.12238 0.009,-0.18356 0.002,-0.0414 0.004,-0.0827 0.008,-0.12392 0.005,-0.0619 0.0113,-0.12383 0.0167,-0.18579 0.007,-0.0689 0.0145,-0.1377 0.022,-0.20655 0.009,-0.0817 0.0178,-0.16349 0.0267,-0.24524 0.009,-0.0847 0.0183,-0.16948 0.0283,-0.25412 0.01,-0.0859 0.0211,-0.17165 0.0317,-0.25745 0.0122,-0.0974 0.0244,-0.19479 0.0369,-0.29212 0.0115,-0.0883 0.0245,-0.17627 0.0382,-0.26412 0.0165,-0.10322 0.0331,-0.20644 0.0502,-0.3095 0.0143,-0.0862 0.0297,-0.17219 0.0471,-0.25762 0.0139,-0.0619 0.0286,-0.12362 0.0477,-0.18376 0.0297,-0.094 0.0592,-0.1881 0.0919,-0.28076 0.0273,-0.0768 0.0547,-0.15364 0.0865,-0.22806 0.0293,-0.0688 0.0605,-0.13644 0.0952,-0.20169 0.0365,-0.068 0.0742,-0.13494 0.11593,-0.19866 0.0496,-0.0754 0.10123,-0.1491 0.15517,-0.22038 0.0567,-0.0729 0.11399,-0.14532 0.17622,-0.212 0.0802,-0.0886 0.16166,-0.17561 0.24484,-0.26042 0.083,-0.0846 0.16735,-0.16759 0.25439,-0.24663 0.0986,-0.0899 0.19833,-0.1781 0.30017,-0.26297 0.10622,-0.0888 0.21289,-0.1769 0.32229,-0.26031 0.1009,-0.0763 0.20303,-0.15039 0.30868,-0.21743 0.11733,-0.0741 0.23529,-0.14704 0.35643,-0.21235 0.11286,-0.0603 0.22681,-0.11802 0.34433,-0.16503 0.14105,-0.0566 0.28348,-0.10815 0.42723,-0.15452 0.14855,-0.0474 0.29742,-0.094 0.44821,-0.13086 0.14491,-0.0347 0.29068,-0.0642 0.43776,-0.0834 0.17131,-0.0225 0.3429,-0.0421 0.51499,-0.0555 0.1778,-0.0132 0.35576,-0.0235 0.53393,-0.0262 0.19997,-0.002 0.4,-0.002 0.59996,0.002 0.2158,0.003 0.43157,0.008 0.64733,0.0148 0.22871,0.007 0.45735,0.0163 0.68594,0.0268 0.22969,0.01 0.45937,0.0209 0.68903,0.0319 0.23351,0.0104 0.46703,0.0211 0.70057,0.0308 0.24647,0.01 0.49293,0.0198 0.73947,0.0283 0.25238,0.008 0.50475,0.0147 0.75722,0.0194 0.25192,0.003 0.50385,0.005 0.75579,0.003 0.25037,-0.002 0.50077,-0.004 0.75115,-0.008 0.25775,-0.004 0.51553,-0.008 0.77323,-0.0165 0.25722,-0.009 0.51442,-0.0181 0.77157,-0.0301 0.26529,-0.0129 0.5306,-0.0258 0.79578,-0.0417 0.27002,-0.0174 0.53997,-0.036 0.80948,-0.0622 0.26578,-0.0262 0.53146,-0.0538 0.79678,-0.0854 0.27637,-0.0335 0.5526,-0.0684 0.82774,-0.11367 0.26227,-0.0449 0.52409,-0.0931 0.78534,-0.1454 0.27051,-0.0535 0.54115,-0.10634 0.81075,-0.16591 0.26537,-0.0605 0.53013,-0.12401 0.79348,-0.19564 0.25587,-0.0694 0.51159,-0.13971 0.76658,-0.21355 0.26513,-0.0775 0.53019,-0.15567 0.79335,-0.24205 0.25441,-0.0854 0.50838,-0.17256 0.76092,-0.26538 0.25806,-0.0956 0.51588,-0.19214 0.77162,-0.29591 0.26455,-0.10996 0.52782,-0.22401 0.78569,-0.35405 0.2467,-0.12503 0.49213,-0.25354 0.73287,-0.39372 0.22977,-0.13576 0.45794,-0.27503 0.68141,-0.42453 0.22501,-0.15098 0.44963,-0.30295 0.66853,-0.46597 0.2247,-0.17104 0.44726,-0.34631 0.65625,-0.54318 0.20338,-0.19357 0.40255,-0.39325 0.58734,-0.61113 0.17554,-0.21056 0.34587,-0.42724 0.4976,-0.6622 0.13802,-0.21783 0.27014,-0.44063 0.38597,-0.67572 0.0979,-0.19849 0.1936,-0.39841 0.28265,-0.60254 0.0831,-0.19338 0.1646,-0.38775 0.23764,-0.58673 0.0656,-0.18128 0.12866,-0.3637 0.1876,-0.54808 0.0543,-0.1694 0.10911,-0.33857 0.15896,-0.50985 0.0436,-0.15624 0.086,-0.31299 0.12013,-0.47251 0.0216,-0.10196 0.0428,-0.20401 0.0646,-0.30589 0.0261,-0.1292 0.0525,-0.25935 0.0539,-0.39289 l -2.95969,-0.52334 z"
       id="path3595-7"
       style="display:inline;overflow:visible;visibility:visible;fill:#0197fd;fill-opacity:1;fill-rule:nonzero;stroke:none;stroke-width:1.5;marker:none;enable-background:accumulate"
       inkscape:connector-curvature="0" />
  </g>
</svg>
